<?xml version="1.0" encoding="UTF-8"?>
<svg id="Layer_1" data-name="Layer 1" xmlns="http://www.w3.org/2000/svg" viewBox="0 0 189.84 27.48">
  <defs>
    <style>
      .cls-1 {
        fill: #fff;
      }
    </style>
  </defs>
  <path class="cls-1" d="M16.13,24.6l-.48,.58-.43,.31-.6-.17-.17-.17h-.1l-.07-.07-.17-.05-.36-.31h-.12v-.05l-.55-.5-.48-.62-.17-.19-.22-.72-.19-.72-.02-.79,.07-.31v-.43l.05-.05v-.17l.19-.55,.07-.1,.07-.36,.26-.67,.17-.31,.14-.41,.07-.05,.22-.74,.31-.72,.14-.34,.07-.31,.17-.24v-.1l.07-.1,.02-.19,.26-.58,.29-.72,.24-.62,.07-.19,.1-.12,.26-.7,.29-.72,.24-.58,.22-.6,.29-.7,.29-.67,.05-.17,.12-.19,.14-.43h.05l.29-.72,.26-.65,.19-.82v-.29l-.12-.38-.24-.17h-.34l-.36,.1-.36,.17-.07,.07-.24,.07-.05,.1-.34,.14-.62,.48-.05,.07-.14,.02-.05,.1-.34,.17-.22,.22h-.1l-.55,.53-.55,.58-.5,.55-.29,.65-.24,.65-.17,.46-.31,.62-.1,.38-.29,.7-.29,.62-.24,.67-.14,.46-.1,.1-.26,.67-.26,.72-.29,.72-.31,.7-.14,.34-.05,.29-.22,.55-.05,.22-.07,.07-.26,.67-.34,.72-.12,.34-.26,.34-.29,.24h-.67l-.79,.05h-.98l-.05-.05h-.17l-.17-.1-.22-.29-.02-.19,.1-.41,.12-.14,.02-.29,.07-.05,.24-.72,.19-.36,.02-.17,.22-.29,.24-.77,.31-.65,.31-.7,.22-.7,.31-.72,.26-.74,.19-.34,.24-.67,.12-.36,.12-.17,.1-.36,.19-.29,.05-.29,.22-.55,.29-.65,.31-.72,.26-.67,.26-.72,.19-.53,.07-.05,.24-.65,.14-.46-.05-.22-.14-.14-.36,.05-.74,.22-.36,.1-.26,.12-.34,.07-.74,.29-.72,.22-.14,.12-.38,.1-.34,.22-.38,.1-.1,.14h-.12l-.1,.12-.17,.02-.31,.24-.17,.05-.5,.55-.17,.29-.12,.12-.12,.29-.07,.43,.02,.43,.38,.65,.19,.24h.1l.12,.12,.17,.02,.14,.14,.17,.02,.31,.41,.07,.38-.02,.22,.07,.1v.84l-.07,.65-.14,.12-.14,.24-.74-.02-.38-.05-.67-.22h-.05v-.05l-.29-.05-.1-.14-.62-.43-.43-.38-.07-.17-.5-.58-.12-.14-.14-.31-.17-.74-.17-.77,.05-.77,.14-.77,.07-.46,.1-.07,.07-.26,.14-.24,.02-.12h.05l.02-.14,.38-.43,.17-.26,.58-.55,1.3-.86,.17-.02,.02-.1,.31-.1,.34-.17,.38-.12,.7-.31,.7-.36,.74-.26,.5-.17,.38-.05,.05-.07,.62-.14,.36-.22,.17-.02,.14-.1,.5-.1,.72-.29,.38-.05,.36-.12,.34-.19,.55-.1,.24,.07v.07l.31,.19,.46,.62,.43,.58,.26,.38,.14,.12,.43,.62,.36,.05,.22-.07,.58-.46,.41-.36h.1l.12-.17h.1l.22-.17,.12-.17,.29-.12,.14-.14,.65-.29,.7-.26,.62-.26,.31-.07,.43-.02,.07-.07,.79,.05,.31,.12h.1l.55,.31,.17,.17,.07,.17,.14,.12,.07,.22,.12,.1,.1,.46,.07,.05,.02,.82-.02,.72-.24,.7-.24,.72-.14,.36-.07,.38-.24,.43-.22,.6-.31,.74-.19,.48-.02,.19-.07,.05-.05,.38-.1,.12-.22,.43-.07,.05v.1h-.05v.12l-.19,.55-.12,.34-.19,.36-.14,.48-.07,.07-.02,.17-.12,.14-.26,.65-.17,.6-.12,.12-.02,.26-.12,.14-.05,.26-.17,.31-.07,.31-.31,.55-.26,.7-.24,.72-.19,.31v.17l-.29,.67-.12,.36-.36,.7-.12,.55h-.07l-.07,.79,.02,.67,.17,.29,.5,.55,.24,.31,.02,.1-.07,.43h-.05l-.02,.38-.1,.31-.22,.48v.07ZM1.58,9.07l.05,.17h.1l.07-.07v-.1l-.07-.05-.1,.02-.05,.02Zm6.02,6.96v-.12l-.17-.17v.19l.12,.1h.05Zm.38-1.8l.07-.02,.24,.07v-.22l-.12-.22-.24-.05,.07,.19v.17l-.02,.07Zm-.05,1.15l.12,.05,.1-.12-.1-.05-.12,.05v.07Zm.14-2.95h.12v-.1h-.12v.1Zm.29,3.98l-.14-.12-.07,.05,.02,.19,.19,.1,.1-.1-.05-.12h-.05Zm.05-2.95l.05-.17-.12-.14h-.1l-.05,.07,.02,.19,.12,.05h.07Zm.48,.98l-.38,.05-.14,.07v.1l.1,.17,.1-.02,.07-.12,.12-.02,.02,.1,.07,.02,.19-.1,.02-.07-.14-.12-.02-.05Zm.07-.65l-.17-.05-.17,.05-.12-.12-.1,.12,.22,.05,.14,.26,.07,.02,.05,.19,.12,.07,.17-.22-.02-.12-.17-.22-.02-.05Zm-.46-1.15h.12v-.1h-.12v.1Zm.24,.34l-.05-.02-.1,.05-.02,.07h.07l.1-.07v-.02Zm.26,2.11l-.07-.14-.1-.02,.07,.17h.1Zm.26-4.51l-.05,.17-.1-.02-.1-.14h-.07l.14,.26,.17,.17,.07-.17,.17-.02,.14,.05-.1-.17-.07-.29h-.05l-.12,.14-.05,.02Zm-.26,1.15h.1v-.12h-.1v.12Zm.82,.17l-.43,.05-.26-.05-.07,.05,.1,.17,.17,.05,.19-.1,.22-.02,.17-.07,.07-.1-.05-.05-.05,.1-.05-.02Zm-.72,.91l.17-.07,.05-.07v-.12l-.14-.05-.12,.22,.05,.1Zm0-1.46h.1l.1-.12-.07-.05-.1,.12-.02,.05Zm.22,0l.22,.17h.12l-.07-.36-.05-.07v.05l-.17,.07-.05,.07v.07Zm.17,2.02l.05-.1v-.14l-.1-.05-.05,.07,.05,.22h.05Zm.05-4.08l.02,.1,.22,.12,.1-.14-.02-.1h-.29l-.02,.02Zm.12,3.58l.05,.02,.07-.05v-.1l-.07-.05-.05,.02v.14Zm.43-3.36l-.1,.17-.24,.07-.05,.1,.07,.17,.14,.05,.07-.19h.29l.14-.07,.05-.07v-.17l-.34-.05h-.05Zm-.26,.82v.1l.22,.07-.02-.19-.14-.02v.02l-.05,.02Zm.05,.82l.19,.07h.19l.1-.12-.07-.19-.19-.1-.22,.29v.05Zm.22,.38l-.05-.02-.1,.05-.02,.07,.07,.05,.1-.02,.02-.07-.02-.05Zm0-7.94l-.02-.17-.07-.05-.05,.17,.07,.05h.07Zm.17,7.18l-.07-.17-.14-.05,.07,.17,.1,.05h.05Zm.22-1.94l-.24,.26-.02,.1,.17,.07,.05-.07-.05-.05,.14-.1,.17,.22-.1,.17,.05,.05,.12-.02,.26,.07,.02-.26-.17-.26-.14-.02v-.14h-.26Zm-.22-1.42l-.02,.05,.14,.07,.17-.07-.05-.1-.07-.02-.14,.05-.02,.02Zm.05,2.93l.05-.1-.05-.07-.05,.12,.05,.05Zm.05-2.06l.07-.17-.12-.05v.19l.05,.02Zm.17-4.54v.07l-.14,.12-.02,.1,.24,.17,.22-.05-.07-.26,.02-.12,.07-.05,.02-.17-.29,.12-.05,.07Zm1.03,2.26l-.14-.14-.12-.02v-.05h-.12l-.05-.17-.22-.05-.1,.14v.12h.26l-.02,.07,.19,.05,.1,.43,.22-.05,.22,.07,.07,.19-.34,.05v-.12l-.05-.05-.29,.05-.05-.31h-.22l-.22-.17h-.1l-.17,.17h.12l.12,.1,.02,.17-.22-.05-.12,.05v.12l.12,.22,.34-.12,.1,.22h.05l.02-.19,.05-.07,.17,.07,.02,.1-.1,.17,.22,.1v.05l-.36,.26-.24-.05-.1,.29-.19,.07-.1,.1,.34,.12,.12,.14v.17l.14-.02,.38,.17,.05-.07-.05-.38-.05-.07h-.22l-.17-.17v-.17l.07-.05,.26,.05-.02-.14,.29-.07,.02-.1,.17,.17,.02,.1-.17,.07-.05,.07,.02,.1,.31,.31,.02-.1-.1-.12,.02-.1,.34-.05,.02-.07-.22-.29,.05-.1-.14-.12,.22-.17,.07,.02,.02,.41,.17,.07,.05-.07,.05-.36h.07v-.12h.05l.02-.17,.36-.17v-.14h.05l-.07-.22,.12-.38h.12l-.05,.38,.07,.05h.24l.07-.05-.02-.12-.19-.19-.1-.22h-.1l-.07-.07-.02-.12,.34-.17-.02-.1-.41-.22-.05,.07v.17l-.14,.02-.19-.17-.1,.26-.17,.07-.1,.17-.14,.05-.1-.26,.26-.12-.1-.26,.05-.12-.02-.19-.1-.14,.07-.26-.05-.17-.12-.05-.05,.55-.02,.1-.14,.14-.05,.14,.12,.07,.14,.31-.1,.02-.07,.17-.05,.38-.07,.07h-.05Zm-1.13,4.18l.1,.02,.26,.24h.12l-.05-.17,.07-.19-.07-.07-.05,.05-.22-.14-.17,.19v.07Zm.05-3.65h.12v.12h-.12v-.12Zm.12,2.14l.26,.1,.22-.1,.02-.07-.31-.26h-.1l-.1,.29v.05Zm.58-4.08v.1l.07,.12-.29,.17-.05,.1,.12,.36,.14,.02,.05-.12-.05-.07v-.12l.07-.12,.1-.02,.05-.07v-.24l.19-.19-.02-.07h-.12l-.19,.17h-.07Zm.07-.26v-.12l-.29-.1,.02,.1,.22,.1,.05,.02Zm.22-.22l.05,.14,.1,.02,.12-.07v-.05l-.22-.1-.05,.05Zm.48,1.68h.05l.05,.07-.05,.14-.07-.05v-.12l.02-.05Zm.65-.07l-.02,.1-.17,.05-.02,.07,.05,.17,.14-.07,.1,.02-.05,.07,.05,.26-.07,.05h-.22l-.22-.72,.07-.05,.29,.07,.07-.02Zm-.26-.91h.17l.22-.12-.05-.14-.17-.07-.17,.29v.05Zm.05-1.08h.12v-.12h-.12v.12Zm.05,.6l.07,.02,.14-.12,.1-.02,.02-.1-.19,.02-.12,.1v.05l-.02,.05Zm.24,.91v.12h-.12v-.12h.12Zm.74-.22l.07,.14,.1,.02v-.14l-.26-.14v.1l.05,.02h.05Zm.77,16.08h.22l.05-.05-.02-.07-.1-.05-.14,.05v.12Zm.1,1.25l.1,.17,.24,.05,.02-.12-.1-.12h-.22l-.05,.02Zm.24-.6v-.05l.17-.02-.07-.1-.12,.02-.05,.07,.02,.05,.05,.02Zm.05-.74l.17,.05-.02-.1-.1-.07-.02,.07-.02,.05Zm.1-5.23h.22v-.1l-.12-.12h-.1v.22Zm.38,1.42l-.07-.05h-.19l.07,.12,.12,.02,.07-.05v-.05Zm-.1,1.2v.07l.1,.02,.22-.05,.07-.1-.36,.02-.02,.02Zm.74-4.34l.22-.05-.1-.12h-.12v.17Zm1.1-1.9l-.1-.17-.29-.05,.12,.22,.22,.02,.05-.02Zm.22,.38l.1-.29-.17,.07-.02,.17,.1,.05Zm.53-1.63l-.14-.14-.17-.02-.02-.1-.1-.02,.07,.19,.22,.19,.12-.05,.02-.05Zm-.31,1.39h.26l.1,.05,.07-.05h-.05l-.1-.17-.07-.05-.22,.12v.1Zm.1,1.32l.22,.05v-.17h-.1l-.1,.07-.02,.05Zm.17-1.63l.1-.02,.02-.19-.07-.07-.05,.02v.26Zm.26-3.74l-.14-.07-.02,.07,.17,.05v-.05Zm.22,1.68l.34-.12,.07,.07,.19,.05,.12-.19h-.12l-.14-.1h-.19l-.02-.05,.12-.1,.02-.12-.1-.05-.34,.22-.05-.07-.02-.19h-.1l-.05,.1,.05,.17,.14,.14,.07,.19v.05Zm0-1.32v-.1l-.07-.05-.07,.05,.02,.1h.12Zm-.14,2.88l.1-.02,.12-.29-.12-.17-.1-.05v.53Zm1.34-3.02l-.29,.26v.17l-.05,.05h-.1l-.07-.24-.1-.02-.1,.17-.14-.1-.19-.02-.05,.1,.02,.17,.12,.12,.79,.14,.05,.02,.1-.34-.14-.1-.02-.17,.07-.05,.38,.05-.05-.17-.19-.05h-.05Zm-.74,1.78l-.19-.05-.07,.05-.02,.12,.12-.02,.31,.12,.17-.1-.05-.05v-.17h-.12l-.1,.07-.05,.02Zm-.12-6.29l.12,.05-.02-.14-.1-.02v.12Zm.12,4.08h.1v-.12h-.1v.12Zm.1-3.65h.12l.07-.05,.19,.02,.05,.19v.29l.12,.07,.02-.05,.19-.05,.05-.17-.12-.17-.29-.22-.02-.1-.43-.05,.02,.22,.02,.05Zm0-.72l.43,.29,.12-.22h.1l.12-.12v-.05l-.26,.05-.1-.02-.12-.17-.14-.07-.1,.05,.05,.05-.12,.14,.02,.07Zm.12,2.06l.05,.29,.17,.1-.02-.12,.12-.41h-.1l-.14,.14h-.07Zm.22,2.09h.1v-.12h-.1v.12Zm.05,.53h.12l.22-.22-.17-.17-.19,.34,.02,.05Zm.34-.91l-.02-.22-.05-.07h-.1l.02,.26,.1,.02h.05Zm-.07-1.2l.17,.05,.07-.02,.12-.17,.02-.19-.12-.19-.1-.02-.1,.22-.12,.14v.14l.05,.05Zm0,.48l.07,.05h.19l.07-.05-.02-.12-.14-.07-.17,.12v.07Zm.38-2.71l-.19,.31-.02,.12,.07,.07,.41-.02,.02-.12-.12-.1,.1-.14-.19-.12h-.07Zm0,3.43l-.02,.07-.14,.07v.07h.12l.17-.12-.07-.41-.07-.14-.07-.05-.05,.05,.02,.17,.12,.24v.05Zm.05,.65l-.02-.19-.07-.02-.05,.17,.07,.05h.07Zm.34-1.46l-.02-.12,.07-.24-.1-.02-.07,.26,.07,.12h.05Zm.05-1.97l.07,.05,.19-.02,.02-.19-.22-.05-.07,.17v.05Zm.38-.53v-.22l-.1-.07-.07,.17,.12,.12h.05Zm-.17,2.21l.02,.1,.26,.07,.02-.17-.1-.05-.05,.05h-.17Zm.12-.86l.17-.02,.05-.07-.07-.05-.1,.02-.05,.07v.05Zm.31-.7l.1,.17,.07-.02,.05-.1-.02-.07-.29-.19-.02,.07,.1,.12,.02,.02Z"/>
  <path class="cls-1" d="M26.76,7.18l.14-.07,.77,.07,.77,.02,.74,.14,.31,.12,.34,.19,.24,.07,.55,.53,.46,.53,.02,.14h.05v.1h.07v.12h.05v.1h.05l.1,.72-.02,.79-.17,.74-.26,.74-.24,.53-.41,.58-.24,.19-.05,.17-.29,.22-.24,.26-.29,.22-.1,.02-.12,.14-.17,.05-.05,.12h-.12v.05h-.1l-.17,.12h-.12v.05l-.34,.07-.07,.07-.7,.14-.77,.14-.77,.07-.82-.05-.74-.05-.14,.07h-.1l-.19,.31-.02,.41,.05,.41,.1,.34,.17,.29,.31,.36,.12,.02v.05h.12l.31,.19,.26,.1,.89,.07,.6,.02,.74-.24,.36-.07,.14-.07h.19l.7-.34,.58-.41,.26-.1,.12-.17,.24-.1,.55-.48,.53-.55,.43-.41,.07-.17,.53-.6,.19-.34v-.1l.12-.07v-.1l.1-.05,.14-.31,.22-.14,.24-.05,.36,.1,.36,.24,.19,.31v.34l-.19,.31-.05,.24h-.07v.1h-.05l-.02,.14-.34,.46-.07,.05-.02,.14-.12,.07-.07,.19-.46,.55-.29,.29-.43,.55-.6,.53-.26,.26-.62,.46-.46,.31-.17,.12-.02,.07h-.12l-.05,.1h-.12l-.14,.14-.46,.12v.05l-.7,.24-.67,.29-.31,.1-.82,.1-.38,.1-.74,.02h-.94l-.07-.07h-.53l-.05-.05-.38-.07-.31-.17-.72-.19-.6-.48-.29-.26-.19-.29-.48-.6-.12-.38-.05-.38-.1-.17-.07-.38,.05-.74-.05-.74,.22-.72,.12-.74,.05-.38,.26-.65,.22-.79,.43-.65,.36-.65,.41-.6,.1-.17,.07-.05v-.1l.22-.29,.58-.48,.6-.53,.22-.22,.14-.05,.31-.22,.65-.31,.36-.17,.77-.17,.46-.14h.05Zm-5.54,7.94l-.02,.1,.05,.07,.19,.07,.17-.07,.05-.07-.26-.14-.12,.02-.05,.02Zm.77-1.92v.17l.29,.43,.14,.07-.17-.72-.24,.02-.02,.02Zm.26-1.08h.17l-.02-.07-.14-.02v.1Zm.22,3.82l.02,.1,.36,.34-.02-.12,.1-.14,.02-.17-.17-.1h-.19l-.1,.05-.02,.05Zm.26,1.94l.07-.22-.12,.02-.05,.07,.05,.12h.05Zm-.05-6.24l.07,.05h.12l.07-.05-.02-.07-.1-.05-.1,.02-.05,.1Zm.65,1.46l-.14,.05-.02,.17,.17,.05,.17-.43-.05-.02-.07,.05-.02,.12-.02,.02Zm.12-2.54v.1l.19,.07,.12-.07-.22-.17-.05,.02-.05,.05Zm.26,2.38h.12v-.1h-.12v.1Zm.22-1.2l.12,.12,.07,.19,.1,.02,.07-.05-.02-.19-.14-.14-.14-.05-.05,.1Zm.94,1.7l.43,.02,.7-.17,.55-.19,.1-.12,.19-.02,.36-.34,.05-.17,.38-.55,.22-.65,.12-.12,.1-.46-.07-.29-.36-.34-.58,.02-.72,.34-.5,.41-.05,.17-.24,.17-.07,.19-.12,.07v.1l-.41,.53-.34,.7-.12,.36,.24,.26,.14,.07Zm-.22-3.22l.1-.02,.05-.1,.12-.07v-.07l-.17,.07-.1,.14v.05Zm.26-.82h.1v-.12h-.1v.12Zm.65-.17l.17,.05-.02-.1-.1-.05-.05,.1Zm.22,.72l.05-.22h-.1l-.05,.07,.05,.12,.05,.02Zm1.85-.67l.12,.12h.1v-.12l-.17-.1-.05,.1Zm.22-.7h.12l.05-.17h-.12l-.05,.12v.05Zm.22,.26l.12,.22,.02,.24,.07,.1,.38-.12,.38-.26-.07-.19-.17-.1-.26,.22-.14,.02v-.26h-.12l-.17,.12-.05,.02Zm.38-.31l.19-.05,.02-.07-.12-.14-.1-.02-.05,.1,.05,.12v.07Zm.34,1.25v.1h.1v-.14l-.1,.05Zm.17,1.68l-.02-.22-.05-.05-.07,.02-.02,.1,.05,.14h.12Zm-.17,1.8l.1,.05,.17-.17-.22,.02-.05,.05v.05Zm.17-2.4l.07,.02,.07-.05,.07,.02-.17,.34,.24,.26,.02,.22,.17,.22-.05,.17,.22-.02,.1-.14-.07-.05v-.12l-.19-.14,.05-.29-.05-.19,.17-.07,.26,.05,.17-.31h.12l.07-.05,.02-.12-.36-.05-.26,.02-.12,.12-.41-.05-.1-.22-.12-.05v.19l.07,.22v.07Zm0,1.8v.14l.14,.1,.17-.07,.05-.07-.05-.14-.26,.05h-.05Zm.86-2.93l-.26-.26h-.22l-.17,.19v.12l.17,.07,.1,.1-.05,.02,.05,.07-.05,.1-.17,.1-.05,.07,.19,.17,.12-.02,.26-.24,.29-.12v.31l.05,.07h.05l.12-.12v-.19l-.12-.12-.05-.7h-.17v.22l-.07,.14-.02,.02Zm-.29,.14h.17l-.07,.22h-.1v-.22Zm.5-.65l.17-.07,.05-.14-.17,.07-.05,.1v.05Zm.22,2.66l-.02-.22-.05-.07-.1-.02v.19l.12,.12h.05Z"/>
  <path class="cls-1" d="M47.59,15.75l.12,.17,.17,.1h.72l.41-.12,.34-.14,.1-.12,.17-.05,.38-.26,.17-.05,.1-.17,.58-.5,.48-.65,.46-.62,.17-.1,.34-.02,.43,.14,.34,.5,.05,.36-.14,.34-.43,.62-1.06,1.15-.05,.07-.17,.05-.26,.29-.6,.41-.34,.19-.26,.1-.12,.12-.74,.14-.55,.07-.07,.05-.79,.02-.77-.1-.55-.05-.26,.1-.6,.55-.6,.46-.48,.31-.1,.14-.19,.02-.12,.14-.67,.36h-.07v.05l-.77,.17-.74,.14-.05,.07-.72,.05h-.43l-.74-.17-.62-.26h-.05l-.05-.12-.14-.02-.41-.46-.26-.48-.34-.24h-.26l-.24,.31-.14,.05-.31,.31-.62,.38-.31,.22-.7,.31-.38,.05v.07h-.77l-.55-.07-.05-.05-.38-.05-.55-.26-.22-.12-.43-.43-.02-.14-.1-.07-.14-.29-.17-.79-.02-.34,.12-.79,.1-.74,.02-.1,.07-.05,.05-.38,.24-.67,.26-.65,.22-.74,.19-.41v-.1l.1-.14,.07-.36,.19-.31,.29-.74,.14-.34,.19-.29,.05-.19,.07-.05,.05-.29,.12-.1v-.17l.12-.22,.02-.34,.07-.05,.02-.14,.07-.07,.07-.34,.31-.7,.19-.34,.29-.26,.14-.07,.77-.05,.79,.07,.77-.05,.36,.07,.29,.26,.1,.31-.07,.26-.22,.5-.12,.17-.02,.14-.07,.1-.22,.67-.17,.41-.12,.14-.24,.74-.17,.34-.1,.31-.07,.05-.12,.38-.34,.7-.12,.17-.19,.65-.22,.5-.07,.07-.05,.19-.12,.17-.43,1.54-.1,.31-.05,.41,.07,.38,.1,.14h.12v.05h.1l.05,.05,.58-.07,.55-.5,.17-.12,.41-.5,.26-.36,.22-.17v-.12l.26-.29,.36-.65,.31-.48,.02-.17,.14-.1,.31-.62,.22-.67h.05l.22-.72,.19-.53,.29-.67,.34-.7,.14-.24,.02-.22,.29-.7,.26-.72,.17-.36,.24-.29,.24-.19,.77-.05,.79-.05,.77,.05,.38,.05,.17,.1,.05,.17h.07l.05,.19-.17,.74-.1,.36-.12,.12-.02,.17-.24,.43v.17l-.1,.07-.12,.53-.1,.07-.26,.7-.14,.36-.07,.07-.26,.67-.24,.67-.22,.36-.05,.22-.07,.07-.22,.6-.02,.14-.31,.7-.24,.67-.22,.74-.05,.41,.02,.22,.07,.17,.14,.14,.31,.12,.43-.1,.41-.24,.6-.46,.26-.29,.1-.17v-.38l-.17-.72,.02-.38,.1-.36h.05v-.1h.05v-.12l.58-.5,.05-.07,.34-.22,.29-.07,.5-.05,.29-.24,.6-1.2,.02-.31,.07-.05,.22-.65,.19-.72,.22-.74,.24-.74,.05-.36h.05l.1-.38,.19-.31,.22-.22h.1v-.05l.26-.1,.84-.1,.79-.07,.38,.1,.17,.12,.1,.19,.02,.38-.12,.5-.1,.14-.12,.7-.02,.22-.26,.62-.12,.48-.17,.36-.14,.53-.24,.6-.07,.12-.1,.36h-.05l-.26,.7-.31,.55-.34,.7-.07,.05v.12h-.07l-.02,.17-.22,.26-.02,.17-.14,.14-.02,.24v.05Zm-14.5,3.1v-.22l-.07-.05h-.22l.07,.17,.17,.1h.05Zm-.24-2.18l.19-.02,.05-.07-.17-.05-.07,.1v.05Zm.29-.7l.14,.1,.24-.05-.07-.24,.02-.12,.1-.12v-.12l-.31,.19-.12,.31v.05Zm.31,2.18l.05,.19,.17,.07,.17-.34-.31,.07h-.07Zm.12-3.48h.1v-.12h-.1v.12Zm.34,.31h-.17l.02,.07,.07,.02,.07-.05v-.05Zm-.07,1.63v.22l.05,.1,.07,.02,.17-.29-.02-.1-.1-.05-.1,.1h-.07Zm.07,.6l.1,.26,.22,.12,.12-.43-.38,.05h-.05Zm.1,1.75h.1l.12-.12,.17-.07v-.1h-.26l-.05-.05-.02-.19-.1-.02-.05,.17,.1,.14,.02,.17-.02,.07Zm.05-4.42h.12v-.1h-.12v.1Zm.12,1.54h.1l.12-.12-.07-.05-.1,.02-.05,.07v.07Zm.17,1.9l.1,.05,.05-.1-.1-.07-.02,.07-.02,.05Zm.1-3.6h.12v-.1h-.12v.1Zm.12,5.02h.1l.05-.12-.14-.05v.17Zm.22-1.25l-.05-.02-.1,.05-.02,.07,.12,.02,.07-.07-.02-.05Zm.38-5.33l-.07-.17h-.1v.1l.12,.07h.05Zm.36-.94h.12l-.02-.1h-.14v.05h.05v.05Zm.72-1.3h-.05l-.12-.12h-.05l.02,.14,.07,.07,.1-.05,.02-.05Zm1.63,6.46l.05,.02,.07-.07-.02-.19-.1-.02v.26Zm.48-.6l.12,.17,.1,.05,.12-.36-.12-.12h-.05l-.17,.19v.07Zm1.2-1.13h-.34l-.14-.05-.17,.1-.12-.05-.02-.12h-.07l.02,.1,.14,.07v.05h.58l.17,.22v.07l-.38,.22-.05-.07v-.19l-.1-.02-.12,.34v.22l.26-.1,.12,.14,.1,.05h.19l.1-.05,.26,.48-.05,.29,.12,.1,.29,.05,.07,.17-.02,.19-.14,.05,.07-.29-.67-.17-.1-.1-.1-.02-.02-.07,.19-.14,.22,.12,.05-.05-.05-.14-.17-.07-.02-.1-.17-.12-.31,.14-.17-.02,.05,.22-.1,.05-.12-.12-.43,.29,.1,.34-.02,.05,.22-.02,.26-.14v.05l.12,.12-.02,.1-.19,.22-.17-.1-.1,.14-.02,.12,.17,.05,.05,.07,.31,.02,.02,.12-.17,.07-.12-.12h-.1l-.05,.22,.26,.07,.07,.07,.05,.19h.36l.1-.14,.22-.05,.12,.02,.12,.1,.38-.05-.05-.19,.05-.19h-.12l-.14-.14,.12-.07,.31,.12,.12-.12,.36-.12,.05-.07v-.12l-.17-.07-.29-.05-.02-.1,.34-.14-.02-.12-.14-.07-.05-.19-.24-.31-.22-.19,.14-.12,.02-.1-.22,.1-.05-.1,.14-.36,.07-.02,.17,.1,.29-.1,.1,.05-.14-.24-.02-.14,.1-.02,.07-.17v-.22l.05-.07-.34-.17v.1l-.24,.1-.07,.36h-.07v.1l-.07,.02-.07,.17-.07-.02-.12-.36-.12-.14-.02-.12,.05-.19-.07-.05-.19,.1-.05-.05,.1-.14v-.07l-.12-.02-.1,.14-.05,.26,.17-.07,.22,.46-.12,.02-.05,.02Zm-1.08,2.93h.1v-.1h-.1v.1Zm.82-.48h.1v.1h-.1v-.1Zm.22-3.82h.1v-.1h-.1v.1Zm.1,3.74h.17l-.02,.1h-.1l-.05-.05v-.05Zm.29,.17l.07,.05,.02,.1-.07,.19-.14,.05-.05-.05v-.1l.14-.19,.02-.05Zm-.07-3.62h.12v-.22h-.12v.22Zm.38-.17v.12l.1,.12,.02,.14-.17,.02-.34-.14,.07,.38,.12-.05,.24,.14,.12-.26,.1-.05,.31-.02,.02-.07-.07-.19-.12-.12-.36-.05-.05,.02Zm-.17,3.26l.07,.02v.1l-.07,.05-.05-.02v-.1l.05-.02v-.02Zm.38,1.56l-.1-.22h-.17l.02,.12,.1,.12h.12l.02-.02Zm-.17-5.64l.17,.1h.12l.05-.17-.12-.14h-.1l-.1,.17-.02,.05Zm.34,.31h.12l.05-.14h-.12l-.05,.1v.05Zm.05-1.73l.12,.36h.17l.05-.1v-.22l.05-.1,.12,.31,.38-.02,.34,.05,.36-.02-.02-.22-.24-.22-.29,.12-.12-.12h-.14l-.12,.12h-.05l-.12-.17-.36-.05-.14,.1v.12l.02,.05Zm.07,.77l.1,.05,.05-.12-.1-.05-.02,.07-.02,.05Zm.14,1.42l.31,.17,.05,.14,.14,.05-.12-.6-.43-.14,.05,.34v.05Zm0,4.73l.12-.17h-.1l-.07,.07v.07l.05,.02Zm.29-6.22l-.02-.1-.1-.05,.02,.1,.1,.05Zm.48,.43l-.12-.1-.19-.07-.29,.07,.17,.43,.05,.02,.22-.1,.07,.07-.14,.1-.02,.12,.19,.07,.17-.22,.17-.07,.07-.17-.05-.19-.07-.02-.14,.05h-.07Zm-.34,2.23v-.29l-.1-.02-.05,.07,.02,.19,.07,.05h.05Zm.17-4.22l.05-.1-.05-.12h-.05l-.05,.07,.05,.12,.05,.02Zm.34-.12l.22,.14,.17,.02-.07-.17-.07-.05-.07-.29-.07,.02-.1,.24v.07Zm.22-.53l.26-.07,.24,.17,.1-.1-.17-.1-.12-.19-.22,.05-.12,.12v.07l.02,.05Zm.43,.58v.12l.17,.17,.1-.34-.22,.02-.05,.02Zm2.62,4.37l-.38,.02v.41h-.14v.19l.07,.07,.34,.05,.02-.22-.12-.31,.14-.07,.1,.02,.02,.14,.22,.02,.05,.05-.31,.48v.43l.1,.02,.29,.36,.05-.05v-.1l-.17-.29,.07-.07-.05-.26,.07-.14,.07-.02,.07,.07,.19,.07,.05,.14,.14-.02,.1,.05,.1,.12,.38,.07,.05-.17-.05-.07-.12-.05v-.07l.12-.22-.05-.02-.17,.1-.29-.05-.02,.19-.12,.02-.17-.46v-.1l-.31-.17-.02-.19,.05-.1,.07-.02,.1,.05,.34-.05,.1-.34,.1,.05,.1-.02,.05-.07-.14-.07-.82-.07-.14-.02-.1,.62v.05Zm-.5,1.46h.1l.07-.12h-.1l-.05,.07-.02,.05Zm.34-1.8l.07-.31-.07-.17-.07,.02-.07,.19,.02,.17,.07,.07,.05,.02Zm.43-.55l.38-.12,.1-.1-.26-.22-.22,.36v.07Zm1.08,.6l-.22,.17,.05,.17-.1,.05-.26-.05-.12,.26,.12,.17,.22,.1v-.07l.12-.19,.05-.19,.05-.02,.26,.12,.1-.02,.19-.34,.19-.02,.07-.05-.17-.07h-.17l-.14-.36-.12-.07-.1,.14-.02,.24v.05Zm-.48,1.92l-.05,.19,.05,.12h.14l.05-.07,.14-.02-.02-.31-.05-.07-.43-.07v.12l.14,.07,.02,.05Zm.22-3.12l-.1,.14-.17,.02v.12l.19,.17,.29,.1,.05,.12,.38-.05,.12-.07-.07-.26-.07-.05h-.14v.19l-.1,.07-.17-.12,.02-.05,.14-.05v-.05l-.34-.24h-.05Zm1.25-1.03l-.14,.26-.02,.19-.22,.17v.05h.14l.12-.12h.12l-.02-.22,.22-.17,.02-.1-.14-.07h-.07Zm-.05,1.97l-.07-.14-.14-.02v.12l.05,.07h.12l.05-.02Zm.82-4.03l.07,.05,.24-.05-.07-.17-.19-.05-.05,.17v.05Z"/>
  <path class="cls-1" d="M87.43,2.9l-.77,.1-.72,.19-.17,.07-.31,.29-.34,.22-.19,.26-.26,.72-.36,.7-.14,.34-.14,.14-.07,.29-.12,.1-.05,.38-.19,.6-.17,.43-.12,.17v.1l-.14,.14-.02,.14-.12,.1-.14,.65-.07,.07-.1,.38-.07,.12-.05,.22-.31,.62-.29,.77-.14,.22-.07,.26h-.05l-.05,.34h-.05l-.12,.48-.31,.7-.24,.62-.22,.38-.12,.38-.07,.05-.1,.17-.07,.31h-.07v.12h-.05l-.05,.22h-.05l-.12,.14-.02,.14-.34,.58-.24,.31-.12,.24-.1,.05-.05,.22-.5,.6-.26,.38-.5,.53-.58,.48-.26,.29-.41,.26h-.1l-.12,.14-.14,.02-.07,.12h-.1v.05h-.12l-.12,.12-.12,.02-.17,.14-.53,.22-.19,.02-.14,.1-.72,.14h-.89l-.77-.02-.36-.1-.1-.07-.19-.05-.26-.22h-.1l-.58-.53-.19-.34-.14-.14-.02-.22-.07-.17-.38-.19-.02,.07-.24,.07-.07,.12-.14,.05-.22,.24-.14,.07-.05,.1h-.1l-.12,.14-.12,.02-.05,.12h-.12l-.05,.1h-.12l-.26,.24-.34,.19h-.07l-.31,.19-.38,.02-.62,.17-.12,.12-.67,.05-.79-.02-.38-.1-.67-.29-.24-.17-.36-.34-.02-.12-.12-.05-.02-.14-.14-.14-.24-.5-.1-.77v-.72l.05-.79,.07-.53h.07l.14-.72v-.12l.26-.72,.22-.74,.26-.58,.17-.34,.02-.14h.05v-.12h.05l.07-.26,.05-.05,.05-.29h.05v-.1l.26-.7,.07-.02v-.1h.05l.24-.67,.12-.38,.17-.22,.12-.26,.14-.55,.19-.26,.19-.58,.36-.77,.1-.5h.05v-.1l.07-.12,.05-.22-.02-.12-.07-.07-.36-.05-.72,.24-.55,.22-.7,.19-.65,.26-.72,.31-.22,.14-.29,.1-.38,.24-.02,.1-.14,.02-.26,.34h-.1l-.22,.29-.12,.07v.12l-.1,.05v.12l-.12,.1-.1,.34,.05,.84,.17,.36,.48,.48h.1l.12,.12h.1v.05h.12v.05l.14,.02,.24,.19,.1,.17,.05,.24-.05,.41,.02,.82v.43l-.07,.34-.22,.26-.29,.07-.84-.1-.72-.26-.6-.26-.5-.34-.55-.55-.48-.62-.19-.48-.07-.07-.14-.72-.07-.41,.02-.77,.07-.77,.12-.7h.07v-.12h.05v-.1l.12-.05,.02-.17,.1-.17,.07-.05,.36-.62,.24-.19,.02-.1,.58-.5,.34-.34,.14-.02,.67-.41,.46-.29,.67-.34,.24-.1,.14-.14,.72-.17,.31-.14,.72-.22,.62-.26,.72-.22,.38-.07,.67-.26,.26-.07,.14-.12,.72-.19,.26-.12,.29-.02,.1-.07,.14-.02,.12-.14,.14-.02,.46-.58,.36-.36,.14-.02,.6-.48,.1-.07h.1l.53-.31,.31-.07,.12-.07,.38-.05,.31-.12,.53,.36,.17,.31,.24,.82v.36l-.14,.31-.58,.6-.55,.53-.26,.31-.17,.31-.24,.74-.17,.43-.05,.22-.34,.67-.22,.41-.05,.38-.17,.24-.29,.7-.24,.6-.17,.58-.1,.12-.26,.7-.31,.72-.26,.72-.26,.67-.34,.7-.24,.72-.29,.74-.07,.19-.19,.26-.24,.74-.22,.7-.1,.72-.05,.02,.1,.38,.12,.22,.24,.14,.34,.05,.41-.17,.65-.46,.17-.05,.5-.6,.48-.58,.38-.48,.29-.48,.31-.46,.05-.19,.14-.14,.19-.34,.05-.19,.17-.19,.19-.67,.12-.14,.24-.7,.24-.67,.07-.05,.14-.29,.14-.43,.26-.7,.26-.55,.22-.7,.12-.14,.1-.36,.12-.26,.02-.22,.12-.14,.17-.46,.12-.26,.02-.17,.17-.26,.14-.5,.12-.14,.05-.29,.1-.1,.17-.58,.05-.02,.1-.38,.72-1.39,.26-.26,.31-.12,.74-.05,.86,.02,.74,.05,.17,.05,.17,.12,.12,.17,.05,.17-.05,.41-.07,.19-.07,.05-.1,.31-.29,.7-.29,.67-.24,.5-.29,.65-.22,.77-.14,.38-.14,.14-.22,.72-.31,.65-.29,.7-.26,.72-.12,.36-.17,.31-.19,.48-.17,.55-.12,.14-.02,.19-.19,.26-.1,.36-.17,.24-.1,.38-.14,.24-.24,.7-.07,.29-.19,.38-.17,.62-.22,.79,.05,.43,.17,.26,.31,.14,.6-.07,.14-.1,.12-.02,.5-.41,.14-.05,.43-.43,.07-.17,.14-.14,.02-.12,.12-.05,.05-.17,.26-.24,.05-.14,.29-.31,.05-.17,.12-.05,.19-.5,.14-.14v-.12h.05l.1-.26,.12-.12v-.1l.17-.22v-.07l.07-.07,.02-.14h.05v-.1h.07l.19-.53,.1-.36,.29-.58,.1-.14,.02-.19,.12-.1v-.17l.12-.17,.1-.43,.07-.07,.02-.19,.12-.12v-.17l.31-.65,.07-.26,.1-.17,.02-.17,.29-.7,.26-.67,.14-.26v-.1l.24-.58,.24-.65,.31-.72,.14-.36,.02-.22h.07l.05-.29,.34-.58,.07-.07,.17-.5,.17-.31,.38-.58,.55-.53,.26-.26,.17-.07,.34-.34h.1v-.05l.7-.17,.38-.1,.7-.29,.67-.12h.89l.7,.07v.05h.1l.14,.14,.1,.31-.07,.77v.17l-.22,.77-.24,.31-.02,.05Zm-27.82,6.84l-.07-.12h-.1l-.05-.07-.24-.02-.22,.22,.07,.05,.26-.1-.02,.19,.12,.24,.48-.14-.02-.07-.17-.14-.05-.02Zm-.6-.38l.1-.02,.12-.12,.1-.02,.05,.07v.22l.29-.07,.05-.05-.22-.29-.17-.1-.29,.34-.02,.05Zm.1,1.42h.12v-.12h-.12v.12Zm.26,.1l.17,.05,.12-.19h-.12l-.14,.1-.02,.05Zm.38,.98l-.26,.12v.05l.19,.05,.36-.22,.14,.31v.19l.17-.1v-.29l-.17-.34-.07,.02-.24-.12-.12,.24v.07Zm.07-.53h.1l.05-.17h-.1l-.05,.12v.05Zm.1-3.55v.22l.05,.1,.07,.02,.19-.19,.07-.19-.34,.07-.05-.02Zm3.53-2.06l.14-.07,.02-.1-.1-.1-.1,.19,.02,.07Zm.5,10.01l.14,.07,.19,.02,.1-.05-.02-.1-.17-.07-.22,.1-.02,.02Zm.1,2.66h.12v-.12h-.12v.12Zm.34-3.26l.05-.17-.05-.1h-.12l-.05,.17,.05,.1h.12Zm0,1.3l-.12-.05-.05,.05,.05,.07,.1-.02,.02-.05Zm.1,1.58v-.22h-.1l-.05,.07,.02,.1,.07,.05h.05Zm-.05-3.79h.12v-.12h-.12v.12Zm.17,1.18h.1l.07-.14h-.12l-.05,.1v.05Zm1.08-2.06l-.14-.1-.34,.1,.05,.29h.1v-.19l.05-.05,.07,.02v.26l-.1,.05-.07-.05-.1,.14-.12,.02-.14-.1-.12-.02-.05,.07,.1,.26h.26v.12l-.17,.12h-.29v.1l.1,.19,.02-.07,.19-.02,.07,.12v.19h.07l.17-.19v-.12l.12-.12,.05-.14h-.12l-.14-.17,.05-.05,.17,.05,.1-.05v-.24l.1-.17,.24-.22,.1-.26h-.14l-.07,.19-.05,.02Zm-.82-.38h.17l-.02-.1-.14-.05v.14Zm.12,4.42l.1-.02,.05-.1-.14,.07v.05Zm.05-2.28h.1l.07-.17h-.12l-.05,.12v.05Zm.05,1.08h.19l.1-.1-.14-.1-.19-.02,.02,.19,.02,.02Zm.12,1.97l.02-.07-.1-.29-.1-.02,.02,.19,.1,.17,.05,.02Zm-.12-4.94l.5-.24,.05-.22-.26-.05,.02,.07-.07,.17-.17,.07-.07,.12v.07Zm0,5.47l.17,.07,.19-.02,.05-.22-.02-.19-.07-.07h-.1l-.22,.36v.07Zm.55-6.46l-.02-.29h-.1l-.05,.19,.1,.1h.07Zm0-1.15l.05-.12-.05-.1-.12-.05,.02,.22,.05,.05h.05Zm0,3.38h.1l.07-.12-.17-.05v.17Zm.17-3.55v.1l.14,.14v.1l-.1,.02-.05,.19-.12,.05v.22h.12l.26-.22h.05l-.12-.24,.02-.07,.1-.02,.17-.31-.1-.05-.34,.07-.05,.02Zm-.12,8.93v.1l.22,.07-.02-.19-.14-.02v.02l-.05,.02Zm1.54-10.66l-.38,.05-.05,.07v.24l-.07,.02-.38-.38-.02,.07,.1,.12-.02,.41-.1,.05v.12h.12l.1-.14,.1-.02,.12,.05,.02-.1,.36,.05,.07,.17,.24,.14,.02,.17-.29-.1-.1,.05-.12-.07-.24,.19-.02,.12,.1,.12v.07l-.07,.07-.02,.14,.07,.05,.02,.12,.31-.19,.07-.26-.05-.1,.19-.02,.24,.1-.02-.07,.05-.22,.22-.22,.05-.24,.17-.14-.02-.05h-.12l-.12-.12v-.19l.12-.17v-.07l-.07-.1-.12,.05-.1-.17-.17-.14-.05-.1,.14-.12,.17,.19,.19,.07,.1-.02,.1-.24-.02-.24,.34-.05v-.24l-.34-.62v-.12l.46-.22,.22,.12,.1-.12h.17l-.07-.17-.12-.1v-.22l.36-.22,.05-.58-.05-.24,.22-.05,.26-.5-.22-.43,.05-.17-.1-.22,.26,.05,.05-.05v-.22h-.12l-.14,.12-.26-.26-.05-.17-.12-.12,.07-.12-.02-.05h-.26l-.02,.24-.07,.17-.24,.19-.26-.14-.17,.05-.1-.12h-.07l-.1,.22-.34,.07,.07,.43,.26-.12,.17,.34v.31l-.22,.22-.1-.12-.1-.29,.02-.12-.38-.12-.07,.29-.1,.14-.26-.14-.22,.12-.14,.26-.5,.14v.1l.43,.19v-.14l.1-.02,.02,.12,.19,.26-.26-.05-.05,.1,.07,.07,.36-.05,.19-.19,.1,.02-.07,.36,.07,.17,.07,.05h.12l.07-.07,.05-.17,.1-.02v.12l.22,.19,.36-.1,.07,.1-.1,.14-.22,.07-.12-.14-.1-.02-.07,.07-.24,.1-.02,.12h.24l.17,.17-.02,.48-.17,.1h-.19l-.07-.14h-.12l-.05,.05v.1l.1,.12,.41,.22h.43l.05,.12-.1-.02-.34,.12h-.5l-.19-.17h-.17l-.02,.07,.07,.26h.31l.12,.12v.05l-.1-.05-.12,.05v.26l.07,.05h.31l.12,.38v.19l-.07,.02-.1-.26-.26-.1-.02,.05,.17,.1,.1,.12,.02,.05Zm-1.37,4.78l.14-.05,.02-.1-.07-.12h-.05l-.05,.07v.19Zm.1-1.78l.17-.1v-.14l-.17,.1-.02,.1,.02,.05Zm0-1.92l.22,.02,.07,.14-.07,.12,.34,.26-.1-.29,.05-.19-.12-.1v-.19l-.1-.05v-.12l-.17-.05-.1,.14-.02,.24v.05Zm.12,2.28l.41,.05,.29,.17v-.1l-.19-.31-.02-.12-.36,.12-.1,.14-.02,.05Zm.05-7.82l.19,.07,.07-.02,.12-.14-.05-.17-.19,.05-.14,.17v.05Zm.12,8.38l.07,.05h.12l.07-.05v-.05l-.07-.05h-.12l-.07,.05v.05Zm.17-7.99l.1,.02v.24l-.07-.05-.02-.14v-.07Zm0,6.48l.31,.6h.05l.05-.07-.05-.22,.07-.05v-.05l.14-.07v-.1l-.12-.02-.24-.24h-.17l-.05,.14v.07Zm.36-2.35l-.02-.19-.19-.19-.02,.07,.05,.19,.14,.12h.05Zm.38-4.39h.05l.07,.19-.05,.17,.14,.07h.17l-.07,.07-.12,.36h-.12v-.17l-.07-.05-.29-.02-.02-.1,.17-.36,.12-.14,.02-.02Zm-.22,6.41h.12v-.12h-.12v.12Zm.38-1.42l.12-.17h.05l.07,.31,.05,.05-.24-.17-.05-.02Zm.6-4.61l.14,.1,.02,.17,.17-.05,.1,.05-.02,.22-.07,.12,.05,.05,.12-.07,.07,.05,.05,.26,.07,.05,.07-.02-.02,.19-.05,.07-.17-.07-.1-.24-.26,.1-.26-.26-.02-.1-.07-.05-.05,.02-.1-.05,.02-.1,.1-.05-.05-.12,.22-.12,.02-.1,.02-.05Zm.05,1.94l-.12,.12h-.05l-.02,.1h-.07l.07-.17,.12-.05h.07Zm.12-3.26l.05,.07v.22l.05,.05-.17,.07-.22-.19,.07-.17,.14-.05h.07Zm-.17,2.74l.12,.12,.05,.14-.17,.07-.12-.07,.1-.22,.02-.05Zm.1-2.14h.12l.14,.1,.1,.36,.19,.05,.07,.17,.29,.22,.02,.1-.07,.05h-.22l-.05,.07-.07-.05-.12-.26-.34-.07-.02-.12,.12-.22-.17-.34v-.05Zm.12,4.8l.14-.07,.02-.1-.1-.02-.02-.07-.1-.02,.05,.22v.07Zm.05-2.74l.17,.07-.05,.22-.12-.02-.05-.07,.02-.14,.02-.05Zm.07-3.05v.17l.22-.02,.1-.19-.29,.02-.02,.02Zm.7,.46l.02,.22-.07,.05,.22,.29,.17,.1-.02,.12,.07,.36h-.34l.02-.1,.1-.07-.02-.1-.31-.17,.02-.07-.07-.31h-.22v-.05l-.12-.12,.02-.07,.29-.07,.02-.07,.17,.07h.05Zm-.29,3.24l.07,.07-.02-.1-.1-.02-.02,.1,.02-.02,.05-.02Zm.34,.24l-.14-.05-.02,.1h.17v-.05Zm.38-4.03l.02,.1,.1,.07,.22-.22-.12-.02-.19,.05-.02,.02Zm.12-.6l.07,.05h.19l-.05-.14-.1-.02-.12,.07v.05Zm.22,14.74l.22,.05-.02-.12-.07-.05-.12,.07v.05Zm.38-1.37l-.14-.12-.1,.02v.17l.29,.17,.05,.1-.07,.17-.31-.07-.02,.12,.1,.22,.31,.1,.19-.14,.02-.1,.19-.07,.12-.24h.12l-.02-.07-.24-.02-.05,.05,.05,.17-.05,.05h-.1l-.07-.14,.1-.5h-.19l-.14,.17h-.02Zm.1,1.68l-.02-.17-.07-.05-.05,.17,.07,.05h.07Zm-.05-15.15l.1,.05v-.14l-.1-.02v.12Zm.05,14.88l.17-.07,.05-.14-.05-.05-.17,.02-.05,.07v.12l.05,.05Zm2.02-2.11l-.12,.14h-.19l-.07-.05-.07,.02-.17,.36-.12,.1-.12,.02,.05,.36-.17,.07h-.17v.14h-.22v.24l-.07,.02-.17,.22h-.1l-.12,.12,.02,.07,.1,.05,.29-.17,.22,.05,.14-.12,.05-.1h.07l.07,.12-.07,.26,.38-.1,.29,.1,.14,.12,.02-.07h.05l.02-.07-.19-.24,.07-.14-.1-.12h-.1v.22l-.1,.1-.07-.02-.24,.07-.02-.1,.05-.1,.29-.17,.02-.22,.19-.17,.34,.1,.05-.05v-.17l-.1-.05-.19,.05-.07-.05v-.22l.26-.22,.14-.05v-.38l.12-.26-.05-.07h-.07v.12l-.22,.22Zm.17-.67l.12,.14,.19-.07-.1-.14v-.07l.1-.05,.14-.5,.07-.05,.02,.05,.14,.05,.05-.38h-.1l-.05-.31,.07-.05,.02-.17,.31-.17,.02-.22-.67,.38v-.12l-.31-.31v.6l-.1-.07-.17,.07-.17-.07-.17,.07-.19-.1-.07,.02-.02,.31,.07,.19,.02-.1h.19l.07-.05,.05-.14,.5,.17,.05,.1-.02,.12-.26-.05-.19,.31-.19,.07-.26-.12-.17,.14-.26-.07-.05,.05-.02,.19-.05,.02-.1-.05-.12,.05,.07,.17,.34,.12,.05,.07-.02,.19-.43,.22v.34l-.12,.02v-.22l-.19,.02-.07,.05,.07,.17,.53,.26v.05l-.12,.12v.05l.12,.1h.12l.1-.14h.05l-.02-.31,.17-.22,.07-.02,.07,.05,.07-.02,.07-.14,.12,.07,.12-.07v-.12l-.07-.19h-.1l-.12-.12-.05-.19-.34-.34,.34-.12h.17l.14,.31,.22,.17h.24Zm-1.75,1.42l.17,.05,.05-.14-.19,.05-.02,.05Zm.86-.74l-.24-.12-.02-.1,.1-.02,.07-.1h.1l.07,.17-.05,.14-.02,.02Zm-.14,2.76l.05,.34h.12l.12-.17,.07-.26-.12-.34v-.22l-.1-.05-.19,.36,.02,.31,.02,.02Zm.48-1.94l-.12,.22h-.22v-.12l.14-.14,.17,.02,.02,.02Zm-.05-2.35h-.17l.02,.07,.07,.02,.07-.05v-.05Zm.6-1.46h-.24l-.31,.26,.17,.12,.1-.02,.12-.12,.1-.02,.22,.05-.07-.17-.07-.05v-.05Zm0,5.71l-.17-.17h-.26l-.02,.12,.12,.31-.12,.14-.02,.1,.05,.05,.12-.02,.36,.07,.1-.05,.17-.36-.1-.1-.12,.26-.1,.02v-.1l-.12-.26,.05-.07,.02,.07,.05-.02Zm-.38-5.16l-.05,.07v.12l.05,.07h.05l.24-.31-.02-.07-.22,.12h-.05Zm-.05,1.56v-.1l.07-.07,.19-.02,.05,.14-.26,.05h-.05Zm0,4.68l.17-.02,.05-.14h-.17l-.05,.12v.05Zm.05-4.22l.05,.14,.31-.12,.02-.1h-.22l-.14,.05-.02,.02Zm.43-2.78h.05l.05,.22h.38l-.05-.26-.07-.02-.19,.07,.02-.1,.17-.1,.07-.19,.07,.17,.31-.07,.05-.14-.34-.1-.1,.05-.12-.12h-.1l-.19,.55-.02,.05Zm.1,1.85l.1,.05,.02,.1-.12,.24-.07-.05-.02-.1,.07-.19,.02-.05Zm.22-.6h-.22l.02-.12,.07-.05,.12,.05v.12Zm-.05,5.81l.07-.12-.02-.1-.14-.05-.05,.05v.1l.1,.1,.05,.02Zm.38-7.97l.19,.22,.05,.17,.17,.22-.05,.1-.24,.17v.38l-.36,.14-.14-.02-.05,.1,.07,.07,.17,.02,.53-.26v-.12l.1-.14-.05-.12,.14-.1,.07,.17,.12,.05,.14-.72-.1,.02-.02,.07-.12,.1-.19-.12-.05-.12,.07-.07,.02-.43-.43,.02-.05,.14v.07Zm-.05-.72h.12l.19-.17h.12v-.12l-.12-.12-.14-.02-.02,.24-.12,.17-.02,.02Zm.38-1.51l.1-.34-.17-.05-.07,.26,.1,.1,.05,.02Zm.05,3.62h.1v-.1h-.1v.1Zm.34-3.02l-.1-.17h-.14v.12l.14,.1,.1-.05Zm.36,.91h-.12l-.36,.22v.1l.12,.24v.1h.31l.05-.22,.07,.02,.17-.12-.02-.12-.05,.1-.1,.02-.05-.07,.05-.26,.26,.12,.05-.07,.29-.12,.05-.14-.41,.05-.26,.12-.05,.05Zm-.43-.05l.17-.1v-.17h-.05l-.12,.19v.07Zm.12-1.25l-.05,.05,.05,.12h.1l.07-.17,.14-.12v-.1h-.05l-.12-.12h-.05l-.1,.31v.02Zm.05,1.51l.1,.05-.02,.19-.07,.02-.05-.07,.02-.14,.02-.05Zm.48-1.63l.12,.07,.05-.12-.1-.05-.05,.07-.02,.02Zm.34-2.23l-.02,.07,.1,.12,.14,.05,.05,.07,.12,.02-.12-.29-.22-.07-.05,.02Zm.05,1.42l.1,.17-.02,.12h.12l.19-.38-.1-.07-.14,.12-.1,.02-.05,.02Zm.22,10.39h.1l.07-.17v-.12l-.17,.07-.05,.1,.02,.07,.02,.05Zm.17-12.84l.17-.19v-.17h-.17l-.1,.29,.05,.05,.05,.02Zm-.1,1.8l.02,.14h.19l.05-.14-.1-.05-.12,.05h-.05Zm.05-1.03h.1v-.1h-.1v.1Zm.26-.34h.26l-.02-.17-.07-.05-.17,.14v.07Zm.22-.53l.17-.02,.05-.07v-.12h-.12l-.07,.05-.02,.12v.05Zm.5,1.2h.1v-.12h-.1v.12Zm.1,10.49l.19-.02,.14-.14-.22-.05-.1,.17-.02,.05Zm.17-.38h.1l.12-.17v-.1l-.12-.07-.1,.26v.07Zm.55-1.15h.1v-.1h-.1v.1Zm.53,.12l.05,.05,.17-.02,.07-.07,.05-.14-.12-.14-.02,.07-.17,.1-.02,.1v.07Zm.17-.5h.12l.05-.1-.17-.05v.14Zm.34,.72l.1-.02v-.1l-.1-.05v.17Zm.31-.72v-.1l-.07-.05-.07,.05,.02,.1h.12Zm.72-2.59h.1v-.12h-.1v.12Zm.1,1.46h.12l.02-.05-.07-.07h-.1l-.02,.07h.05v.05Zm0-.82l.12,.05,.05-.1-.12-.07-.02,.07-.02,.05Zm.05-.65l.17,.1,.05-.17-.1-.05-.05,.07h-.05l-.02,.05Zm.29-.29h.1v-.1h-.14l-.02,.05,.05,.02,.02,.02Zm.43-.14l.1,.17,.07,.05,.14-.07v-.1l-.07-.05h-.19l-.02-.1-.14-.02,.02,.1h.07l.02,.02Zm-.12,.82l.17,.1,.05-.1-.14-.12-.05,.07-.02,.05Zm.5-1.42h.12l.17-.1,.05-.14-.07-.05-.05,.07-.17,.07-.05,.07v.07Zm.22-1.03l.05-.22h-.17v.1l.07,.1,.05,.02Zm.05-1.92l.29-.1,.1-.12-.26-.1-.12,.14v.17Zm.26-.96l.12-.02,.38,.12-.02-.22-.12-.12-.14-.05-.22,.22v.07Zm.72-.89l.07,.17h.1l-.05-.29-.24-.02,.02,.1,.1,.05Zm.38,.17l.07,.05,.17-.1,.02-.17-.19,.05-.07,.12v.05Zm.36-.05l.17,.05-.02-.12-.07-.05-.05,.07-.02,.05Zm.6-2.02l.05-.17-.05-.07-.14-.02v.19l.05,.07h.1Z"/>
  <path class="cls-1" d="M92.59,17.91l.41-.07,.65-.31,.58-.48,.43-.41,.12-.26,.17-.1,.02-.14,.41-.41v-.12l.1-.05,.22-.34,.17-.14,.02-.1,.14-.12,.22-.5,.19-.31,.1-.05,.07-.17,.12-.12,.22-.36,.29-.22,.17-.02,.38,.14,.29,.24,.19,.26,.07,.29-.12,.43-.38,.6-.26,.43v.1h-.07l-.29,.46-.46,.65-.14,.14-.02,.12-.14,.1-.05,.14-.48,.55-.53,.55-.14,.07-.26,.29-.62,.43-.58,.46-.24,.07-.38,.26h-.17v.05l-.7,.17-.41,.1-.38,.02-.77-.07-.36-.02-.43-.14-.22-.19h-.1v-.05l-.19-.1-.19-.22-.1-.02-.12-.17-.05-.17-.14-.1-.07-.17-.31-.19-.12,.02-.53,.38-.29,.22-.17,.05-.1,.14-.67,.38-.31,.19-.7,.14-.84,.07-.72-.14-.58-.26-.05-.07-.14-.02-.5-.6-.1-.26-.14-.14v-.17l-.12-.17-.02-.38-.07-.05-.02-.77-.02-.36,.05-.41,.1-.31,.02-.74,.22-.79,.24-.74,.07-.65,.14-.24,.26-.74,.14-.36,.22-.41,.12-.1v-.12h.05v-.1h.05v-.12h.05v-.12h.07v-.1h.05v-.12h.05v-.1h.07v-.12h.05v-.1l.22-.31,.1-.24,.5-.6,.29-.29,.19-.29,.31-.26,.24-.29,.17-.07,.05-.1h.1l.29-.22,.5-.26,.7-.24,.74-.07,.79,.05,.74,.19,.14,.14,.14,.05,.12,.17,.17,.07,.53,.58,.38,.46,.36,.1,.36-.1,.67-.31,.1-.12,.67-.19,.38-.19,.65-.22,.19,.02,.17,.1,.22,.31v.38l-.17,.55-.07,.07-.05,.17-.17,.29-.24,.67-.22,.58v.07l-.19,.29-.14,.38-.1,.48h-.05l-.24,.53-.12,.17-.02,.17h-.05l-.26,.7-.26,.67-.29,.65-.26,.74-.22,.74-.07,.19-.02,.41,.05,.36,.19,.31,.1,.07,.05,.05Zm-8.57-2.62l-.22,.31v.12h.22l.31-.17h.07l-.07-.17-.26-.1h-.05Zm-.12,3.14l.17,.05,.05-.14-.19,.05-.02,.05Zm.94-4.82l.05-.1-.05-.12h-.07l-.05,.07,.05,.12,.07,.02Zm.1,3.48l.05,.14,.1,.02,.14-.12-.24-.1-.05,.05Zm.43-4.94l.17-.07,.05-.17-.1-.1-.12,.26v.07Zm.22-.72v-.1l-.14-.07,.05,.17h.1Zm0,7.01v-.1l-.12-.05-.02,.1,.07,.05h.07Zm3.38-8.21l-.05,.07-.38,.14-.14,.17-.12,.05-.34,.36-.14,.22-.07,.02v.12l-.12,.05v.12l-.1,.05v.1l-.12,.07v.1l-.14,.14-.07,.24-.34,.46-.17,.41h-.05l-.24,.7-.24,.72-.22,.77h-.05l-.1,.74-.02,.41,.12,.48,.29,.24,.31,.14,.77-.19,.6-.38,.65-.6,.26-.36,.38-.53,.26-.72,.14-.36,.19-.31,.1-.24,.05-.38,.12-.12,.05-.26,.24-.46,.05-.19h.05l.05-.29,.07-.1,.07-.43-.02-.36-.05-.14-.41-.48-.17-.1-.05-.07-.77-.05-.1,.05h-.05Zm-2.83,1.54l-.26-.22,.02,.1,.14,.14h.07l.02-.02Zm1.08-.94l.22-.43h-.1l-.19,.17-.02,.17,.05,.07,.05,.02Zm2.28,6.58l.12,.05,.05-.1-.1-.05-.05,.07-.02,.02Zm.12-1.51l.1-.02,.1-.14h.07l.07,.19,.22,.29,.17-.07,.1-.19-.07-.02-.05-.14h-.1l-.05-.1h-.29l-.07-.17h-.1l-.14,.26,.02,.07,.02,.05Zm.05,.86v.1l.17,.07,.17-.07v-.05l-.17-.1-.12,.02-.05,.02Zm.5,2.02l-.34-.12-.02,.1,.05,.07,.1,.02,.19-.05,.02-.02Zm-.34-3.31l.26-.02v-.1l-.19,.02-.07,.05v.05Zm.17-.77l.19,.07,.12,.1-.1,.17,.1,.05,.12-.22,.17,.07,.07,.12,.14,.07-.02,.17h.07l.05-.07,.22,.07,.02-.07,.19-.02v-.17l-.19,.05-.22-.12h-.12l-.12-.17-.48-.26-.05-.07-.12,.02-.05,.14v.07Zm.05,2.76h.12l.05-.14h-.12l-.05,.1v.05Zm.22-2.11h.12v-.1h-.12v.1Zm.26,2.57l.19-.07,.02-.07-.22-.46,.22-.12v-.05l-.22-.05-.07,.14,.07,.6v.07Zm.07-1.85l.17,.1,.17-.07,.05-.14-.22-.1-.1,.02-.07,.12v.07Zm0,1.99v.22l.14,.17,.12-.22v-.17h-.26Zm.1-3.48l.14,.02,.19-.17-.07-.17-.22-.17h-.1l-.02,.29,.05,.17,.02,.02Zm.6,2.02l.05-.31-.1-.07-.19,.12-.31-.05,.02,.1,.17,.07,.05,.1-.05,.1,.05,.12,.1-.02,.14-.14h.07Zm-.48-2.71h.6l.1-.34,.17,.07v-.12l-.24-.1-.17,.14h-.07l-.02-.1-.14-.05-.19,.02-.05,.19,.02,.22v.05Zm.22,.86h.1l.07-.17h-.12l-.05,.12v.05Zm.17,1.85l-.12-.05,.05-.12,.12,.07-.05,.1Zm-.12,.6l.02,.22,.1,.14,.1,.02,.1-.38-.1-.1-.02,.07-.14,.02h-.05Zm.48-1.73l-.17-.12-.14,.05-.02,.07,.19,.17-.02,.07-.24,.12-.02,.12,.26,.12h.12v-.36l.05-.19v-.05Zm-.43,2.54l.02,.1,.1,.07h.26l-.05-.22-.31,.02-.02,.02Zm.89-3.26l.02,.05,.02-.05-.17-.1-.19-.31-.02-.12,.14-.1,.19-.02,.1,.05,.02-.05,.1-.02,.17-.22-.12-.24h.26l.17-.22-.05-.12-.1,.12h-.07l-.1-.17-.02-.26-.05-.07,.05-.26-.05-.14,.02-.12,.12-.12h.58v-.12l-.17-.14-.12,.07-.17-.1,.07-.14h.17l-.02-.12,.12-.26-.12-.17v-.19l.07-.17-.07-.12h-.14l.02,.34-.1,.05-.34-.17-.19-.22,.22-.12-.1-.19-.14-.12-.14-.05-.1,.17-.29,.26,.12,.1v.12l.22,.17-.1,.14,.14,.34-.1,.22,.05,.05h.1l.12-.17,.26-.14,.17,.05,.19-.07,.07,.02-.1,.12-.17,.02-.02,.22-.5,.17-.07,.12,.22,.29,.05,.19-.1,.26h-.19l-.07-.1,.1-.14v-.07h-.1l-.12-.12v.19l-.12,.12-.05,.12,.22,.02,.12,.1,.07,.14-.02,.5-.14,.12-.29,.1,.05,.29-.19,.05-.02,.1,.05,.1,.14,.1,.02,.41,.12,.22h.1l.17-.36,.07-.05,.05-.02Zm-.07-4.08l-.1,.12h-.12l.02-.12,.12-.05,.05,.02,.02,.02Zm.17,.6h.17v.17h-.1l-.07-.12v-.05Zm.43-.7l.29,.05-.05-.19-.12-.12-.29-.12,.02,.1,.14,.12,.02,.1-.02,.07Zm.72,.43l.1-.02v-.1l-.1-.05v.17Z"/>
  <path class="cls-1" d="M108.5,7.61l.02,.19-.12,.38-.1,.74-.17,.48-.07,.31-.07,.05-.05,.17-.07,.07-.02,.19-.07,.07-.07,.38-.26,.58-.19,.34v.17l-.31,.48-.05,.17-.12,.14-.02,.12h-.05v.12l-.14,.22-.12,.1v.12h-.05v.1l-.14,.12-.02,.17-.24,.26-.36,.55-.14,.12-.14,.36-.1,.05-.17,.34-.07,.05-.02,.1,.07,.22,.12,.14,.36,.1h.36l.36-.07,.62-.19,.26-.14,.53-.55,.58-.5,.02-.14,.26-.26,.43-.65,.14-.14,.17-.07h.17l.53,.17,.12,.12,.05,.17,.1,.12,.07,.38-.1,.36-.14,.12-.02,.12-.07,.05-.29,.5-.14,.14v.07l-.22,.19v.1l-.58,.5-.41,.36h-.1l-.12,.17h-.12l-.05,.12h-.1v.05l-.14,.02-.29,.24-.48,.22-.34,.17-.7,.12h-.22l-.14,.05-.74-.05-.36-.02-.74-.22-.34-.1-.36,.05-.53,.46-.17,.05-.29,.24-.22,.07-.02,.07-.17,.14-.34,.17-.6,.41-.34,.14-.05,.1-.67,.36-.53,.19h-.1l-.19-.14-.12-.02-.41,.1-.31,.17-.79-.1-.77,.05h-.41l-.26-.29-.1-.31,.02-.38,.19-.79,.07-.29,.07-.1,.05-.5,.07-.05v-.22l.05-.05,.12-.77,.07-.38,.07-.1v-.19l.05-.12v-.19h.07l.14-.74,.12-.72,.05-.05v-.22l.07-.05,.05-.43,.05-.07,.1-.72,.02-.14,.05-.05v-.17h.05l.12-.6,.07-.12,.14-.77,.14-.74,.14-.79,.12-.36,.12-.58,.1-.14,.34-.24,.77,.05,.72-.12,.82,.02h.36l.26,.17,.12,.31-.07,.82-.07,.38-.1,.14-.02,.29h-.05l-.1,.74-.07,.12v.26l-.14,.5-.14,.74-.05,.29-.05,.05-.14,.74-.17,.72-.07,.17-.02,.38-.22,.7-.14,.38-.05,.34v.62l.12,.12,.19,.05,.17-.05,1.1-1.06,.53-.53,.48-.5,.05-.14,.46-.58,.43-.67,.29-.48,.12-.12,.17-.34,.14-.14v-.1h.05v-.12h.05v-.1h.05v-.12h.07v-.1h.05v-.12h.05v-.1h.07v-.12h.05v-.12h.05v-.1h.05v-.12h.07l.22-.72,.29-.7,.12-.31,.14-.82,.1-.29,.19-.24,.14-.05,.14-.12,.38-.07,.05-.05,.17,.05,.26-.12,.36-.05,.77,.1,.26,.19,.1,.14,.05,.02Zm-11.52,10.92l.02,.17,.07,.05,.05-.07-.22-.43h-.1l.14,.24,.02,.05Zm-.12-.5l.22-.05v-.1l-.14-.17-.07,.14v.17Zm.34-1.34v-.22h-.17l.02,.17,.1,.05h.05Zm.43,1.46l.02-.07-.14-.07v-.07h-.14v.12l.14,.12h.1l.02-.02Zm1.3-1.58l-.02-.1-.17-.12-.02-.1h-.17l-.05,.1-.19,.1-.5,.02-.07,.1,.34,.17-.05,.1-.38,.29-.02,.43-.1,.34h.22l.07,.14-.07,.17,.1,.02,.02,.1-.17,.22v.17l.41-.05,.05-.1-.14-.22,.19-.02,.26,.14,.05-.1-.12-.5-.36-.1,.05-.19,.12-.14,.14-.05,.22,.34h.17l.07,.17h.1v-.05l.12-.12-.34-.29,.38-.1,.07,.02,.02,.1,.12,.05,.17-.5h-.12l-.22,.12,.05-.26-.17,.1-.07,.19-.07,.02-.19-.05-.31,.22-.26-.07-.05-.07v-.12l.07-.07,.14-.05v-.29l.05-.05,.41,.29h.19l.29-.19,.05,.02-.07-.17-.1-.05-.07,.02-.05,.02Zm-1.25-.31h.1v-.17h-.1v.17Zm.12-.38l.17-.1,.05-.19-.17-.05-.07,.17,.02,.1v.07Zm.1-1.25l.17-.1,.05-.12h-.12l-.07,.05-.02,.12v.05Zm.07-.94h.1l.05-.12-.1-.05-.05,.12v.05Zm.05,5.38l.07,.05h.12l.07-.05v-.05l-.07-.05h-.12l-.07,.05v.05Zm.43-3.96l.05-.19-.22-.29-.05,.07,.02,.22,.19,.19Zm-.17,3.53v.1l.07,.07h.19l.02,.1,.1,.02-.17-.34-.17,.05h-.05Zm.26,.72l.17-.34h-.12l-.14,.22,.05,.1,.05,.02Zm.07-3.91l-.02,.12,.05,.1,.24,.1,.05-.07-.12-.14-.05-.17h-.05l-.05,.07h-.05Zm.26-2.66l-.22,.12v.1l.38-.05,.05,.05v.17l.1-.02,.17-.24v-.1l-.1-.1-.05,.07h-.34Zm0,.74l.02,.19h.17l.07-.24-.22,.05h-.05Zm.12,4.58h.22l.1-.12h-.29l-.02,.05v.07Zm.05,.43l.1,.02,.17-.1,.19,.05,.07-.05-.02-.22-.19-.14-.02,.1-.29,.22v.12Zm.26-3.65l.14-.05,.02-.1-.07-.12-.07,.02-.02,.19v.05Zm.12-4.82l.17,.02,.14-.19h-.12l-.17,.12-.02,.05Zm0,6.72l.22,.07-.02-.1-.12-.07-.07,.05v.05Zm.26,.77l-.22-.05,.05,.14,.17-.05v-.05Zm.17-5.33l-.14-.1h-.07l-.02,.05,.12,.12,.1-.02,.02-.05Zm-.22-1.63l.17-.02,.05-.07v-.12h-.12l-.07,.05-.02,.12v.05Zm.26,7.3l.05-.19-.14-.02,.05,.19,.05,.02Zm.12-7.68h.1l.05-.14h-.14v.14Zm.14-1.25l.12,.05,.05-.1-.1-.05-.05,.07-.02,.02Zm.12,8.54l.1-.14v-.19l-.07-.05-.1,.02-.05,.19,.07,.17h.05Zm.65,.05v-.22h-.17l.02,.19,.07,.02h.07Zm1.75-2.28l.26-.12,.05-.14-.17-.07-.14,.29v.05Zm0,1.25l.17,.05,.1-.1-.07-.05h-.12l-.07,.05v.05Zm.31-.98l.05-.07-.02-.1-.07-.05-.05,.1,.05,.12h.05Zm.38,.38l.05-.22-.14,.05,.05,.17h.05Zm.22,.05l-.12,.24,.05,.19,.12,.07,.12-.22h.22l.17-.07-.07-.17-.14-.05h-.34Zm.48-.7v-.1l-.1-.07-.05,.1,.02,.07h.12Zm-.1-2.78h.1v-.1h-.1v.1Zm.91,.82l.12-.31-.17-.05-.05,.29,.05,.05,.05,.02Zm-.05,.38l.07-.02,.07-.1v-.1l-.1-.05-.05,.19v.07Zm.17-1.8l.34,.24-.07,.1h-.26l-.02,.12,.1,.12,.19,.02,.17-.05,.07,.07,.38-.1,.24-.19-.17-.05-.29,.07-.19-.05-.05-.07,.05-.07v-.22l-.34-.22-.05-.19-.1-.07-.05,.19,.05,.26v.07Zm.26-.7l.5,.22-.07-.17,.02-.1,.07-.05,.02-.17h-.12l-.07-.05-.14-.31-.05-.02-.14,.31-.02,.26v.07Zm.12,.38l.19-.02,.02-.14-.19-.05-.07,.1,.02,.05,.02,.07Zm.05,2.11h.12v-.1h-.12v.1Zm.22-.31v-.1l-.17-.07,.02,.1,.1,.07h.05Zm.43-3.7l-.29,.24-.1,.19h.12l.22-.12,.1,.02,.24,.19,.02-.07-.1-.12v-.29l-.05-.05-.12,.02-.05-.02Zm-.22,1.78l.07,.07,.17,.05,.29-.1,.02-.07-.14-.12-.02-.14h-.34l-.05,.24v.07Zm.22-1.68h.12v.12h-.12v-.12Zm.17-.98l.17,.07-.02-.1-.1-.07-.05,.1Zm.55,0l-.19-.02-.14,.1v.12l.12,.12,.1,.02,.19-.26,.02-.29-.17-.05,.07,.22v.05Zm-.29-.26l.12,.05,.05-.1-.1-.05-.05,.07-.02,.02Zm0,2.11l.12,.12h.1l.05-.12-.05-.22,.12-.02,.1-.24,.1-.02,.02-.07-.05-.07-.24,.05-.12,.12-.14,.43v.05Zm.17-.91l.05-.05v-.1l-.14-.12-.05,.12,.1,.12,.05,.02Zm.34-.26l.05-.19-.05-.07-.12-.02v.19l.07,.07,.05,.02Zm.1-.98l.14,.12h.1l.17-.1,.02-.07-.14-.1-.19-.02-.1,.1v.07Z"/>
  <path class="cls-1" d="M115.08,7.18l.14-.07,.77,.07,.77,.02,.74,.14,.31,.12,.34,.19,.24,.07,.55,.53,.46,.53,.02,.14h.05v.1h.07v.12h.05v.1h.05l.1,.72-.02,.79-.17,.74-.26,.74-.24,.53-.41,.58-.24,.19-.05,.17-.29,.22-.24,.26-.29,.22-.1,.02-.12,.14-.17,.05-.05,.12h-.12v.05h-.1l-.17,.12h-.12v.05l-.34,.07-.07,.07-.7,.14-.77,.14-.77,.07-.82-.05-.74-.05-.14,.07h-.1l-.19,.31-.02,.41,.05,.41,.1,.34,.17,.29,.31,.36,.12,.02v.05h.12l.31,.19,.26,.1,.89,.07,.6,.02,.74-.24,.36-.07,.14-.07h.19l.7-.34,.58-.41,.26-.1,.12-.17,.24-.1,.55-.48,.53-.55,.43-.41,.07-.17,.53-.6,.19-.34v-.1l.12-.07v-.1l.1-.05,.14-.31,.22-.14,.24-.05,.36,.1,.36,.24,.19,.31v.34l-.19,.31-.05,.24h-.07v.1h-.05l-.02,.14-.34,.46-.07,.05-.02,.14-.12,.07-.07,.19-.46,.55-.29,.29-.43,.55-.6,.53-.26,.26-.62,.46-.46,.31-.17,.12-.02,.07h-.12l-.05,.1h-.12l-.14,.14-.46,.12v.05l-.7,.24-.67,.29-.31,.1-.82,.1-.38,.1-.74,.02h-.94l-.07-.07h-.53l-.05-.05-.38-.07-.31-.17-.72-.19-.6-.48-.29-.26-.19-.29-.48-.6-.12-.38-.05-.38-.1-.17-.07-.38,.05-.74-.05-.74,.22-.72,.12-.74,.05-.38,.26-.65,.22-.79,.43-.65,.36-.65,.41-.6,.1-.17,.07-.05v-.1l.22-.29,.58-.48,.6-.53,.22-.22,.14-.05,.31-.22,.65-.31,.36-.17,.77-.17,.46-.14h.05Zm-5.54,7.94l-.02,.1,.05,.07,.19,.07,.17-.07,.05-.07-.26-.14-.12,.02-.05,.02Zm.77-1.92v.17l.29,.43,.14,.07-.17-.72-.24,.02-.02,.02Zm.26-1.08h.17l-.02-.07-.14-.02v.1Zm.22,3.82l.02,.1,.36,.34-.02-.12,.1-.14,.02-.17-.17-.1h-.19l-.1,.05-.02,.05Zm.26,1.94l.07-.22-.12,.02-.05,.07,.05,.12h.05Zm-.05-6.24l.07,.05h.12l.07-.05-.02-.07-.1-.05-.1,.02-.05,.1Zm.65,1.46l-.14,.05-.02,.17,.17,.05,.17-.43-.05-.02-.07,.05-.02,.12-.02,.02Zm.12-2.54v.1l.19,.07,.12-.07-.22-.17-.05,.02-.05,.05Zm.26,2.38h.12v-.1h-.12v.1Zm.22-1.2l.12,.12,.07,.19,.1,.02,.07-.05-.02-.19-.14-.14-.14-.05-.05,.1Zm.94,1.7l.43,.02,.7-.17,.55-.19,.1-.12,.19-.02,.36-.34,.05-.17,.38-.55,.22-.65,.12-.12,.1-.46-.07-.29-.36-.34-.58,.02-.72,.34-.5,.41-.05,.17-.24,.17-.07,.19-.12,.07v.1l-.41,.53-.34,.7-.12,.36,.24,.26,.14,.07Zm-.22-3.22l.1-.02,.05-.1,.12-.07v-.07l-.17,.07-.1,.14v.05Zm.26-.82h.1v-.12h-.1v.12Zm.65-.17l.17,.05-.02-.1-.1-.05-.05,.1Zm.22,.72l.05-.22h-.1l-.05,.07,.05,.12,.05,.02Zm1.85-.67l.12,.12h.1v-.12l-.17-.1-.05,.1Zm.22-.7h.12l.05-.17h-.12l-.05,.12v.05Zm.22,.26l.12,.22,.02,.24,.07,.1,.38-.12,.38-.26-.07-.19-.17-.1-.26,.22-.14,.02v-.26h-.12l-.17,.12-.05,.02Zm.38-.31l.19-.05,.02-.07-.12-.14-.1-.02-.05,.1,.05,.12v.07Zm.34,1.25v.1h.1v-.14l-.1,.05Zm.17,1.68l-.02-.22-.05-.05-.07,.02-.02,.1,.05,.14h.12Zm-.17,1.8l.1,.05,.17-.17-.22,.02-.05,.05v.05Zm.17-2.4l.07,.02,.07-.05,.07,.02-.17,.34,.24,.26,.02,.22,.17,.22-.05,.17,.22-.02,.1-.14-.07-.05v-.12l-.19-.14,.05-.29-.05-.19,.17-.07,.26,.05,.17-.31h.12l.07-.05,.02-.12-.36-.05-.26,.02-.12,.12-.41-.05-.1-.22-.12-.05v.19l.07,.22v.07Zm0,1.8v.14l.14,.1,.17-.07,.05-.07-.05-.14-.26,.05h-.05Zm.86-2.93l-.26-.26h-.22l-.17,.19v.12l.17,.07,.1,.1-.05,.02,.05,.07-.05,.1-.17,.1-.05,.07,.19,.17,.12-.02,.26-.24,.29-.12v.31l.05,.07h.05l.12-.12v-.19l-.12-.12-.05-.7h-.17v.22l-.07,.14-.02,.02Zm-.29,.14h.17l-.07,.22h-.1v-.22Zm.5-.65l.17-.07,.05-.14-.17,.07-.05,.1v.05Zm.22,2.66l-.02-.22-.05-.07-.1-.02v.19l.12,.12h.05Z"/>
  <path class="cls-1" d="M149.04,.1l.14,.26,.05,.38-.02,.38-.19,.72-.05,.79-.14,.72-.02,.22-.17,.55-.05,.05-.07,.6-.05,.05-.19,.74-.14,.5h-.05l-.22,.74-.12,.36-.14,.22-.1,.34-.07,.07-.14,.5-.02,.17h-.07v.1h-.05l-.02,.14-.34,.72-.24,.34v.12h-.05v.1h-.05l-.1,.31-.41,.62-.12,.19-.02,.12h-.07l-.1,.29-.14,.14-.36,.65-.43,.62-.46,.58-.53,.6-.19,.19-.05,.14-.5,.58-.53,.58-.55,.53-.58,.53-.5,.55-.07,.07-.17,.05-.6,.48-.17,.07-.58,.55-.29,.19-.05,.07-.17,.05-.22,.22-.17,.05-.14,.14-.38,.26-.12,.02-.14,.14-.14,.05-.6,.38-.41,.14-.67,.1-.82,.05h-.22l-.14-.05h-.38l-.17,.05-.48-.05v-.05h-.17l-.29-.26-.07-.14,.02-.36,.19-.82,.17-.74,.1-.5,.05-.05,.14-.77,.17-.74,.12-.34,.12-.74,.24-.67,.1-.74,.05-.38,.1-.29,.02-.38,.22-.67,.07-.19,.05-.34,.07-.14,.14-.74,.05-.36,.07-.14,.07-.5,.05-.05,.12-.74,.14-.67,.05-.05,.12-.74,.05-.02,.05-.53-.05-.12-.36-.1-.38,.05-.55,.22-.72,.26-.36,.12-.38,.05-.67,.29-.72,.31-.65,.41-.55,.46-.22,.07-.26,.31-.02,.1-.12,.12-.05,.17-.14,.14-.05,.14-.07,.07-.07,.34,.14,.67,.43,.62,.34,.14,.24,.14,.17,.02,.26,.19,.17,.38v.36l.07,.38-.02,.74-.02,.36-.19,.31-.12,.12-.38,.12-.22,.02-.77-.22-.74-.19-.05-.07-.1-.02-.46-.34-.05-.07-.26-.12-.26-.24-.17-.1-.19-.34-.14-.12-.34-.67-.17-.48-.05-.05-.12-.67-.02-.86,.05-.65,.05-.05,.02-.41,.31-.67,.38-.62,.05-.02,.02-.19,.55-.55,.07-.02,.07-.17,.29-.29,.24-.14,.17-.05,.05-.12,.17-.05,.43-.34h.1l.46-.29,.14-.14,.34-.07,.31-.19,.29-.05,.14-.12,.34-.07,.14-.1,.41-.1,.05-.07,.7-.24,.72-.24,.31-.05,.26-.1,.12-.1,.77-.19,.55-.24,.79-.24h.07l.17-.12h.1v-.05l.31-.05,.26-.22,.48-.62,.62-.5,.12-.17,.38-.12,.1-.12,.14-.02,.36-.19,.7-.22,.82-.05,.26,.24,.22,.29v.1l.19,.36,.1,.53,.07,.12-.07,.05-.17,.36-.24,.24-.34,.19-.6,.55-.12,.12-.14,.34-.12,.17-.12,.36-.1,.14-.1,.74-.02,.22-.07,.05-.1,.77-.05,.1v.17l-.17,.36-.07,.31-.05,.58-.05,.05v.17l-.24,.62-.1,.31v.22h-.05l-.14,.77-.1,.72-.19,.74-.17,.77-.05,.38-.05,.02-.17,.72-.05,.1-.05,.38-.17,.72-.12,.65,.05,.24,.22,.14,.26-.1,.07-.14,.62-.46,.55-.53,.53-.58,.55-.55,.14-.29,.53-.58,.26-.26,.14-.31,.17-.1,.02-.14,.17-.12v-.1l.14-.12,.02-.1,.14-.12,.02-.1,.14-.12,.38-.65v-.1l.29-.38,.34-.65,.34-.7,.07-.07v-.17l.12-.12v-.1l.19-.34,.02-.14h.05l.29-.7,.24-.74,.24-.62,.22-.67,.1-.34v-.19h.07l.17-.74,.12-.7,.14-.77,.14-.79,.05-.38,.12-.24,.31-.24,.38-.14,.77-.07,.07-.05,.38,.05,.79-.05h.19l.19,.1Zm-14.71,17.83l.1-.02,.07-.1-.14,.07-.02,.05Zm.05-.86l.12-.02,.07-.07-.02-.14-.1-.05-.1,.02v.24l.02,.02Zm.34,1.46l-.07-.14-.1-.02v.1l.12,.07h.05Zm-.07-1.37l.19-.05,.12-.12,.02-.1-.19,.05-.14,.17v.05Zm.55,0l.02,.12,.14,.1,.05-.07v-.19l-.19,.02-.02,.02Zm.12,.94l.14-.07v-.26h-.14l-.05,.26,.02,.05,.02,.02Zm.31-4.2l.05-.07v-.14l-.19,.14,.02,.1,.07,.02,.05-.05Zm-.05-9.5v.12l.17,.14,.05-.22h.07l.02-.1-.1-.02-.19,.05-.02,.02Zm0,10.49h.05l.12,.12,.1-.02,.1-.14,.02-.22-.17-.02-.14,.1-.07,.14v.05Zm.05,1.63v.12h.05v.05h.12v-.05h.05v-.12h-.05v-.05l-.12,.02-.05,.02Zm.17,1.85l.22-.12v-.26h-.22v.12l-.1,.22,.1,.05Zm.55-6.41l-.02,.07,.14,.1,.02,.1-.14,.17,.05,.14-.22,.02-.22-.12v-.1l.22-.14v-.07l-.12-.12-.1,.02-.1,.1-.02,.26-.07,.05-.02,.12h.22l.22,.26-.07,.17v.17l.36-.14,.02-.29,.07-.12h.24l.12-.14v-.12l-.26,.05-.05-.07v-.34l-.05-.07-.19,.02-.02,.02Zm-.34,5.54l-.02,.07-.24,.14v.1l.38-.1,.31-.17-.38-.05h-.05Zm-.26,1.56v.1l.07,.07h.14v-.12l-.05-.07-.12-.02v.05h-.05Zm1.42-11.67l-.07,.07-.19,.02-.19-.05,.19,.31,.1,.46-.24,.1-.31-.05-.1,.38,.02,.07h.29l.12,.12v.07l.17-.07,.05,.07-.22,.17v.14l-.1,.17h-.07l-.05-.07-.12-.02,.02,.12,.26,.12,.1,.24-.07,.17-.41,.12-.14-.1-.36-.02v.14l.07,.05h.17l.02,.29h.38l.07-.1v-.1l.07-.07,.02,.12h.07l.22-.24,.12-.41-.02-.5,.17-.05,.05,.02-.05,.29,.07,.14-.07,.41-.1,.14-.05,.19,.02,.05-.07,.05h-.19l-.05,.12-.17,.07-.43-.02-.02,.07,.07,.12,.12,.07-.05,.26,.1,.07v-.22l.07-.07h.1l.07,.77,.02,.12,.17-.07,.1-.17v-.12l-.14-.17v-.07l.07-.1-.17-.34,.02-.07,.07,.05,.19,.02,.02,.1,.22-.07,.12-.1,.05-.1-.1-.02v-.17l.07-.14,.07-.05,.43,.05-.05-.26,.17-.1,.1-.17-.26-.07-.05,.07-.02,.19-.05,.07h-.1l-.07-.17,.02-.1,.1-.07h-.1l-.07-.07-.05-.19,.1-.05,.12,.05-.07-.36,.02-.12,.14-.07h.22l.1-.36-.1-.12-.38,.31-.1,.02v.31l-.1,.07-.46-.38,.02-.34,.05-.05h.1l.05,.07-.05,.07,.14,.17h.12l.07-.05-.05-.19-.24-.26-.05-.19,.12-.12,.19,.07,.12,.14-.05,.17h.22l.05-.1-.05-.29,.17-.02,.05-.07v-.12l-.31,.19-.07-.02-.07-.17-.26-.12-.02-.02Zm-1.15,7.97l.1,.07,.07-.12-.12-.05-.05,.1Zm.1-10.2l.24,.1,.1-.05,.05,.22h.29l.14,.22,.12-.02,.05-.07-.05-.29-.29-.14-.1-.12-.14,.1-.07-.05,.12-.14v-.12l-.17-.05-.17,.1-.12,.29v.05Zm.17,8.95l.07,.02,.14-.5h-.1v.1l-.12,.22v.17Zm.34-6.07l-.07-.19-.19-.1v.17l.22,.1,.05,.02Zm-.17,10.37l.12-.02,.05-.07h-.14l-.02,.05v.05Zm.12-4.08h.1v-.1h-.1v.1Zm.26-8.57l-.12-.07-.12,.05v.14l.12,.02,.02,.07,.17,.05v-.1l.05-.05,.31-.02-.07-.14-.31,.05h-.05Zm-.22-1.63l.17,.07,.24-.07,.02-.17-.41,.12-.02,.05Zm0,13.37h.1v-.12h-.1v.12Zm.26-4.03l-.05-.02-.1,.05v.12l.17-.05v-.05l-.02-.05Zm0,.34l.17-.02,.05-.07v-.12l-.22,.1v.12Zm.12,3.05l-.12,.1v.12l.22,.07,.07,.07,.05,.22,.19-.05,.1-.07v-.19l-.07-.05-.05-.17-.17-.07-.05-.14-.07-.02-.07,.05-.02,.1v.05Zm-.12,.96l.02,.12,.14,.17,.1-.12,.02-.17-.19-.05-.1,.05Zm.34-6.29l-.22,.1-.07,.22,.17,.12,.17,.02,.07-.05,.1-.72-.12-.07-.12,.26,.02,.07v.05Zm-.29,6.72h.12v-.1h-.12v.1Zm.29-14.19h.17l-.02-.07-.14-.02v.1Zm.7,.34l-.05,.07-.24,.1-.1,.14-.31,.12,.19,.22,.29-.05,.05-.05h.12v-.07h.1l.05-.26h.19l-.07-.17-.17-.05h-.05Zm-.7,.98l.07,.05,.1-.02,.05-.14h-.12l-.1,.07v.05Zm.22,1.25v-.1l-.07-.07h-.14v.12l.05,.07h.12l.05-.02Zm-.17,.48l.17,.07-.02-.1-.1-.07-.05,.1Zm.22-3.26l.1-.17v-.1l-.1-.05-.1,.26,.1,.05Zm.17,3.43h.12l.14-.1-.12-.36-.1-.02-.07,.14v.29l.02,.05Zm.91-2.06l-.17-.1-.14-.02-.05,.1v.38l-.12,.07-.17-.07-.22-.02v.1l.1,.17v.12l-.05,.05,.17,.1,.55,.05-.02-.1h-.19l.02-.07,.14-.1v-.1l.22-.07,.1-.6,.05-.05-.02-.05-.1,.02-.05,.17-.05,.02Zm-.31,1.3l-.02,.1-.34,.14-.02,.05,.29,.07,.22-.05,.1-.14-.14-.17h-.07Zm-.22,10.7h.1v-.1h-.1v.1Zm.05-10.8l.1-.02,.07-.1-.14,.02-.02,.05v.05Zm.26,1.13l-.24,.14-.02,.07h.17l.17-.1,.05-.22-.1,.02v.05l-.02,.02Zm0-3.02l.05-.1-.02-.1-.07-.05-.05,.1,.05,.12,.05,.02Zm.12,.1h.29l.02-.05-.07-.05-.24,.05v.05Zm.41-.46l-.17,.17,.02,.07h.12l.12-.12,.1-.26h-.12l-.07,.14Zm2.21,10.39l-.05-.19-.12-.07-.05,.1,.07,.14,.1,.02h.05Zm.05,1.1h.12l.07-.05,.02-.12h-.17l-.05,.12v.05Zm2.38-4.46l.34,.17,.05-.07-.1-.31h-.12l-.14,.17-.02,.05Zm.82-.22l-.02-.17-.07-.05-.05,.17,.07,.05h.07Zm.07-1.25l.05-.12-.05-.05-.05,.12,.05,.05Zm.14,.43l.29,.12-.07-.19-.1-.02-.1,.05-.02,.05Zm.5-.34v.17h.22l.17-.17-.07-.05-.29,.02-.02,.02Zm.86-1.51l-.05-.19-.07-.02-.05,.05h.05l.05,.19,.07-.02Zm.77-3.43l.1,.07,.07-.12-.12-.05-.05,.1Zm1.03-.36h.1l.12-.12h-.12l-.1,.07v.05Z"/>
  <path class="cls-1" d="M150,7.42h.67l.84,.02h.41l.36-.07,.43,.07,.29,.22,.1,.31-.22,.77-.29,.72-.22,.62-.12,.17-.53,1.25-.26,.67-.29,.74-.29,.65-.22,.6-.1,.05-.02,.14-.19,.34-.17,.62-.26,.74-.17,.77-.05,.41,.02,.24,.22,.29,.26,.14,.34-.05,.7-.46,.53-.5,.31-.22,.34-.34v-.12h.07l.05-.17,.1-.05,.07-.17,.1-.05,.43-.6,.38-.55v-.1h.05l.07-.17,.1-.05,.14-.29,.14-.14,.05-.17,.22-.36,.26-.22h.19l.36,.14,.31,.19,.29,.43-.05,.34-.38,.72-.41,.65-.26,.29-.26,.48-.19,.22-.02,.1-.24,.19-.07,.19-.48,.55-.24,.31-.14,.1-.1,.22-.31,.24-.12,.14-.6,.43-.19,.19h-.12l-.26,.26-.22,.05-.05,.07-.7,.31-.34,.14-.7,.12-.82-.05-.82-.12-.12-.02-.26-.22-.14-.02-.53-.58-.12-.17-.12-.55-.07-.1v-.1l-.12-.12-.05-.67-.02-.43,.19-.79,.17-.72,.14-.65,.26-.67,.29-.7,.17-.34,.22-.6,.24-.65,.1-.14,.02-.17,.12-.17,.07-.26,.19-.29,.29-.74,.05-.17,.12-.12,.05-.26,.19-.55,.29-.7,.17-.29,.02-.24,.24-.29,.19-.12,.05-.05Zm-1.63,7.34l-.12-.07-.02-.1-.14-.05,.02,.1,.14,.14h.1l.02-.02Zm-.22,2.02l.07,.05,.1-.02,.05-.1-.17-.02-.05,.05v.05Zm.22-2.28h.1l.05-.07v-.22l-.17,.07v.17l.02,.05Zm.1,1.18v.1l.07,.07h.14l-.02-.12-.07-.07h-.07l-.05,.02Zm.22-.1v-.26h-.1l-.02,.1,.07,.17h.05Zm0,2.23l.12-.24v-.1h-.17l-.05,.19,.05,.12,.05,.02Zm.5-6.79l-.1-.05-.17,.02-.12,.24,.38-.02,.14-.07,.07-.19-.29-.26-.02-.1h-.07v.12l.19,.19v.07l-.02,.05Zm-.38,4.18h.14l.14-.19-.02-.17-.05-.02-.14,.12-.07,.19v.07Zm.1,.6l.31-.02,.02-.1-.12-.1-.19,.07-.02,.1v.05Zm0,1.73l.05,.02,.07-.05v-.1l-.07-.05-.05,.02v.14Zm.17-3.79h.12v-.12h-.12v.12Zm.34-.6l.02-.07-.05-.22-.05,.02v.24l.07,.02Zm.14-3.31l-.1,.14,.1,.29,.26-.07,.12,.02,.07-.38-.17-.07-.12-.26h-.26l-.02,.12,.12,.17v.05Zm.17,2.11v-.12l.1-.14-.05-.12h-.12l-.12,.12,.02,.17,.12,.1h.05Zm.55-1.63l-.58,.12-.07,.05-.02,.1-.05,.02,.14,.26,.14,.05,.07-.19,.12-.12h.07v.12l.12,.19-.05,.1,.05,.07,.17-.1-.05-.19,.02-.07-.12-.22,.1-.12,.05-.22-.02-.24,.22-.1v-.05l-.14-.07-.14,.07-.07,.17,.02,.31,.02,.05Zm-.55,2.18l.05-.19-.05-.07h-.1l-.07,.17,.1,.1h.07Zm-.1-1.42v.1h.1v-.14l-.1,.05Zm.31,1.68h.12v-.1h-.12v.1Zm.12-3.1l.17-.02,.05-.07v-.12l-.05-.05-.17,.02-.05,.07v.12l.05,.05Zm.22,1.9l.31-.05-.02-.1-.19-.14-.14-.02-.05,.1,.1,.14v.07Zm.17,.29l-.12-.12-.1,.12,.17,.02,.22,.19,.12-.12-.05-.07-.22-.02h-.02Zm.26-1.68v.31l.17,.1,.19,.02,.07-.05,.12,.14h.1l.05-.1-.22-.07-.26-.29-.05-.14-.07,.02-.26-.07,.02,.1,.14,.02Zm0,1.18h.34l-.1-.31,.02-.07-.17-.05-.1,.36v.07Zm2.11-8.95l.12-.07,.36,.12,.34,.22,.17,.05v.07l.14,.02,.46,.34v.12h.05v.1l.12,.12,.1,.38,.07,.05,.07,.38-.02,.55-.22,.48-.5,.6-.31,.24-.55,.19v.05l-.41,.02-.41-.05-.65-.26-.34-.19-.24-.26-.19-.31-.14-.36-.05-.79,.17-.72,.02-.12,.34-.43,.6-.41,.34-.1,.53-.02h.05Zm-1.56,6.58l-.02-.05-.19-.02-.1,.14-.02,.41,.05,.12,.17-.1,.12-.26,.22-.05,.14-.14,.02-.14-.12-.19v-.1h-.12l-.05-.17-.07,.02-.02,.1h.1l.07,.17-.02,.12-.1,.14h-.05Zm.14,1.03h.1v-.17h-.1v.17Zm.6-6.31l.05-.07v-.12l-.05-.07h-.05l-.05,.07v.12l.05,.07h.05Zm.17,5.21h.12v-.1h-.12v.1Zm.17-5.04l.05,.17h.12l.05-.17-.05-.05-.12,.02-.05,.02Zm0,1.2l.02,.12h.19l.1-.12-.07-.05-.19,.02-.05,.02Zm.1-.6h.17l-.02-.1-.14-.02v.12Zm.29-.77v-.38l.05-.1h-.22l.02,.41,.1,.07h.05Zm.1,.43l.22-.07v-.24l-.14-.12-.07,.07-.05,.17,.02,.14,.02,.05Zm0,1.08l.5,.12,.14-.38h-.12l-.07-.05-.07-.14-.17-.02v.12l-.22,.26v.1Zm.82-.82l.12,.02,.07-.05,.1-.34h.22l.1-.12-.6-.17v.65Z"/>
  <path class="cls-1" d="M163.9,17.95l.38-.1,.29-.22,.14-.02,.05-.1,.17-.07,.17-.24,.62-.48,.24-.31,.22-.14,.05-.17,.22-.17v-.12l.17-.1,.02-.14,.1-.02,.17-.34,.31-.36,.12-.24,.1-.05v-.1l.24-.41,.02-.14h.05l.19-.29,.17-.17,.05-.17,.31-.14h.26l.48,.26,.26,.43v.46l-.17,.34-.17,.22-.02,.17-.24,.29-.1,.24-.43,.62-.05,.1-.14,.1-.02,.1-.38,.5-.46,.55-.22,.29-.58,.53-.55,.5-.6,.43-.31,.19-.1,.12h-.12v.05h-.1v.05l-.14,.02-.31,.19-.72,.24-.34,.07-.82,.07-.58-.07-.1-.1-.38-.1-.14-.1-.17-.02-.55-.48-.22-.22v-.12h-.05v-.1l-.14-.26-.19-.84,.05-.74,.07-.38-.02-.31,.07-.1,.05-.34,.14-.34,.07-.36,.34-.7,.19-.74,.19-.48h.05v-.12h.05v-.1h.05v-.12l.12-.12v-.1h.05l.07-.31,.26-.72,.29-.82,.05-.34-.07-.24-.17-.12-.1-.14-.65-.05-.62,.26-.1,.05-.05,.1-.19,.02-.58,.5-.82,.82-.05,.17h-.05l-.12,.38-.1,.31-.07,.07-.02,.17-.31,.48-.19,.65-.07,.05-.24,.7-.26,.72-.14,.34-.17,.22-.1,.26-.12,.12-.07,.65-.29,.65-.19,.5-.12,.36-.19,.34-.14,.43-.12,.1v.1l-.22,.24h-.12l-.1,.12h-.36l-.79-.12-.74,.14-.55-.02-.12-.14-.26-.14-.14-.34v-.38l.1-.38,.31-.74,.12-.17,.24-.67v-.12l.07-.12v-.12l.12-.1,.05-.17,.12-.1,.1-.29,.17-.26v-.17l.12-.1v-.14l.17-.46,.17-.5,.05-.17,.12-.14,.12-.34,.12-.17,.29-.7,.17-.58,.26-.41,.05-.17,.12-.1,.05-.34,.07-.12,.22-.74,.24-.7v-.07h.07l.05-.26,.07-.07,.02-.19,.12-.12v-.1l.19-.34,.02-.17,.17-.17v-.1l.07-.07,.05-.17,.17-.17,.14-.02v-.05h.1l.05-.05,.36,.05,.36,.14,.05,.07,.19,.05,.14,.1h.12l.14,.14,.72,.22,.36,.12,.38,.05,.19-.05,.12-.12,.36-.19,.22-.17h.1l.67-.36,.26-.17,.74-.22,.72-.14h.79l.24,.02,.05,.05h.17l.43,.17,.17,.17h.1l.12,.17,.17,.1,.05,.17,.17,.12,.24,.65,.05,.14-.05,.67-.1,.34-.05,.38-.24,.74-.26,.7-.17,.34-.24,.7v.07l-.1,.12-.26,.6-.02,.19-.26,.62-.29,.7-.14,.43h-.07l-.1,.36-.07,.07v.17l-.17,.65-.07,.38,.02,.48,.14,.1,.07,.17,.19,.07,.05,.05Zm-8.33-4.2l.17,.05,.17-.14-.07-.05h-.22l-.02,.12-.02,.02Zm.72,.67v-.12l-.1-.12-.14-.05,.1,.24,.1,.05h.05Zm2.28-4.13l.05-.19-.12-.14h-.1l-.05,.17,.05,.1,.12,.07h.05Zm2.33,6.41l.05,.17h.12l.05-.17-.05-.07h-.12v.05l-.05,.02Zm.48-2.23v.17l.1,.05,.24-.05,.12,.14h.1l-.05-.36-.48,.02-.02,.02Zm.29,2.66l.02,.36,.07,.05,.12-.02,.05-.07v-.31l.14-.12,.02-.1-.22,.05-.22-.17-.12,.17,.07,.14,.05,.02Zm.1-.77l-.02-.38,.07-.17-.1-.05-.07,.02-.07,.17v.22l.14,.19h.05Zm.12,.38h.17l-.02-.07-.14-.05v.12Zm.17-3.05v.29l-.1,.05-.02,.1,.07,.05,.14-.14,.17-.05,.1-.12-.14-.26,.34,.1,.07-.05,.02-.12-.55-.05,.02,.07-.1,.12-.02,.02Zm.1-4.51l.12,.05,.05-.1-.12-.05-.05,.1Zm.05,5.76l.1,.17,.24-.05v-.05l-.19-.12-.1,.02-.05,.02Zm.12-2.02h.22l-.02-.1-.14-.12-.05,.17v.05Zm.1-3.14l.02,.22,.14,.38,.12-.02,.1-.14-.1-.05-.02-.14,.12-.29h-.19l-.14,.05h-.05Zm0,4.51l.36,.1,.14-.05-.02-.1-.14-.07,.05-.19-.14-.07h-.17v.22l-.05,.14-.02,.02Zm.72-2.93l-.24,.14-.1,.17,.22,.12-.07,.19-.24,.24,.12,.1,.41,.02-.05-.22,.05-.17,.12,.07h.58l.12-.29,.1,.05,.12-.1v-.07l-.6-.1-.05-.07,.24-.41,.1-.02,.1,.05-.07-.17-.17-.07-.24,.02-.12-.1h-.22l-.1,.34v.26Zm-.43,1.8l.05,.26h.12l.07-.14,.02-.19,.14-.14-.02-.07-.12,.02-.22,.26h-.05Zm.05-1.92h.14l.02-.1h-.12l-.05,.1Zm.05-2.88h.12v-.22h-.12v.22Zm.72,.77l.1,.38,.17,.12,.02,.1-.12,.17-.14,.1-.07,.17-.29,.12v-.29h-.17l-.14,.12,.02,.17,.07,.05v.19l.05,.07,.29,.12,.26-.19,.22-.02,.02,.19,.46,.07,.02-.19,.14-.14,.14,.12,.19-.05,.14-.14v-.19l-.34-.12-.02-.26,.31-.05,.02-.24,.14-.14-.34-.14-.26-.02-.14-.24-.17-.02v.14l-.12,.12v.05l.19-.02,.1,.05,.05,.1-.05,.12,.14,.26-.02,.1-.14,.1-.22,.02-.05-.07v-.19l-.22-.29,.07-.31-.02-.07-.24-.14-.12,.05,.02,.19,.02,.02Zm-.65,.43l.07,.05h.19l.1,.17,.17,.05,.07-.14-.02-.12-.07-.05h-.19l-.1-.14-.17-.02-.05,.14v.07Zm.22,3.7l.07,.05h.19v-.22l-.24,.12-.02,.05Zm.05,.65l.19-.05,.19,.12,.1-.17-.07-.17-.26-.12-.07,.02-.1,.24,.02,.05v.07Zm.31-2.38l-.12,.05-.19-.17,.12-.1,.1,.02,.1,.14v.05Zm-.31,2.71l.14,.1h.12l.02-.07-.07-.12h-.17l-.05,.1Zm.6-1.37v-.22l-.07-.17h-.22l.05,.29,.19,.1h.05Zm-.07-1.2l.1,.05,.07,.14-.05,.1-.12-.12v-.17Zm.24,.89l.1-.14,.05-.19-.19,.05-.05,.1,.05,.17,.05,.02Zm0-2.45l.12,.12-.02,.1-.12-.02v-.17l.02-.02Zm.14,2.93h.1v-.17h-.1v.17Zm.17-4.46h.12l.02-.1-.1-.05-.05,.1v.05Zm.17,2.74l.1,.1h.07v-.12l.1-.14-.22-.31-.1-.02-.05,.24,.07,.22,.02,.05Zm.17,.43l.05-.22h-.12l-.05,.07,.02,.1,.1,.05Zm.26-2.95l.05-.12-.14-.14-.05,.05v.1l.1,.1,.05,.02Z"/>
  <path class="cls-1" d="M180.07,7.54l.22,.29,.02,.38-.24,.46-.1,.38-.07,.05-.29,.74-.31,.72-.29,.67-.26,.72-.26,.7-.29,.67-.17,.31-.12,.38-.07,.1-.07,.38-.14,.14-.02,.17-.22,.29-.07,.29-.31,.72-.29,.72-.26,.74-.24,.55h-.05l-.05,.22,.02,.14,.14,.14,.17,.02,.36-.19,.12-.12h.1l.05-.1h.12l.05-.12h.12l.05-.1,.17-.05,.26-.29,.14-.07,.6-.5,.26-.24,.48-.58,.19-.24h.05l.31-.41,.02-.12,.46-.55,.07-.07,.02-.14,.24-.26,.1-.19,.12-.12,.19-.31,.14-.38,.29-.29,.36-.05,.36,.17,.48,.46,.05,.31-.19,.41-.07,.07-.05,.17-.12,.1-.36,.7-.43,.62-.07,.07v.12l-.12,.05v.1l-.14,.12-.02,.14-.53,.55-.74,.74-.17,.05-.53,.53-.53,.46-.14,.02-.12,.17h-.1l-.46,.43h-.1l-.12,.17h-.1v.05h-.12v.05h-.1l-.05,.12-.14,.02-.14,.12-.19,.05-.02,.07h-.1l-.29,.22-.65,.34h-.1v.05h-.12v.05l-.29,.12-.34,.24-.24,.31-.19,.74-.26,.6-.07,.24-.12,.1v.1h-.07l-.02,.14-.19,.31-.14,.48-.14,.14-.07,.29-.19,.24-.48,.58-.26,.29-.07,.17-.29,.29-.14,.05-.1,.12h-.1v.07h-.12v.05l-.26,.1-.07,.07-.19,.07-.07,.07h-.1v.07h-.12v.05l-.14,.02-.07,.07-.26,.07v.05l-.24,.05-.12-.02-.31,.1-.77,.05-.41-.02-.72-.24h-.1v-.07l-.14-.02-.31-.24-.22-.29-.31-.26v-.1l-.19-.19v-.17l-.17-.31-.1-.77v-.36l.1-.38,.36-.67,.14-.12,.05-.14,.22-.22,.05-.17,.58-.55,.29-.19,.19-.05,.12-.12,.43-.12,.43-.34,.26-.07,.07-.07h.1l.67-.29,.14-.14,.34-.05,.62-.31,.34-.29,.22-.29,.05-.17-.02-.19-.1-.07-.19-.02-.43,.29-.1,.02-.12,.12-.74,.22-.34,.1-.82,.05-.36-.07-.77-.26-.02-.07-.12-.05-.29-.31-.31-.43-.12-.36-.07-.05-.1-.72-.05-.38,.02-.38,.05-.12v-.41l.07-.17,.17-.77,.05-.05v-.17l.22-.53,.05-.07v-.22l.05-.05,.02-.19,.36-.67,.22-.72,.07-.05,.05-.26,.26-.5,.07-.05,.19-.72,.07-.1v-.1l.34-.7,.26-.7,.26-.74,.05-.17,.12-.12,.02-.22,.22-.31,.14-.5,.29-.26,.36-.02,.31-.07,.77,.05,.79-.05,.53,.1,.1,.02,.26,.24,.07,.14v.41l-.12,.29v.1h-.05l-.02,.14-.22,.34-.29,.72-.17,.5-.12,.1-.02,.14-.12,.24-.19,.7-.1,.17-.02,.14-.29,.58-.29,.72-.31,.7-.26,.74-.07,.34h-.07v.1h-.05v.12h-.05v.1h-.05v.12h-.07l-.14,.65-.07,.12-.17,.82,.02,.36,.1,.17,.31,.19,.26-.02,.36-.17,.36-.22,.12-.17,.55-.48,.22-.34,.14-.14,.34-.6,.22-.22,.05-.17,.41-.58,.38-.67,.29-.67,.17-.58,.07-.07,.05-.26,.12-.22,.12-.38,.12-.14,.14-.48,.07-.07,.1-.36,.19-.36,.19-.67,.14-.36,.12-.14,.05-.19,.1-.14v-.12l.14-.14,.12-.46,.12-.1,.05-.17,.26-.24,.34-.12,.34-.02,.14,.07,.17-.07,.74-.05,.38,.1,.74,.02,.1,.02,.05,.02Zm-12.22,18.96l.14,.07,.29-.07-.07-.22-.29,.05-.07,.12v.05Zm2.42-3.79l-.72,.34-.67,.36-.17,.14-.14,.05-.14,.24-.14,.12-.14,.41,.05,.34,.17,.22,.31,.17,.38-.07,.62-.43,.29-.36,.12-.22h.05v-.12h.05v-.1l.22-.26,.17-.36,.05-.31-.29-.14h-.05Zm-1.61-4.51l-.07-.22h-.1l.02,.17,.1,.05h.05Zm-.07-1.1l.1,.05,.05-.05-.05-.12-.14,.07,.05,.02v.02Zm.22-3.14l.12,.02,.05-.07-.1-.07-.05,.07-.02,.05Zm.38-.91h-.31l.02,.12,.12,.07,.07-.02,.1-.12v-.05Zm-.17,3.84l.1-.14,.02-.17h-.1l-.1,.07-.02,.1,.05,.12,.05,.02Zm-.1,.89l.1,.05,.07-.12-.12-.05-.02,.07-.02,.05Zm.05-2.78l.55,.12v-.1l-.22-.02-.24-.31-.1-.02v.34Zm.43,.6h-.31l-.07,.1,.07,.07,.26,.07,.17,.1,.14-.14,.17-.02-.05-.38,.05-.19-.1-.07-.17,.34-.12,.12-.05,.02Zm-.1-.98l.05-.17-.12-.14h-.1l-.05,.17,.12,.14h.1Zm-.12,4.2h.12l.05-.12-.17-.05v.17Zm.12,.58h.1l.05-.14h-.1l-.05,.1v.05Zm.31-2.71l.02-.17-.07-.19-.12-.12-.07,.17,.02,.19,.17,.12h.05Zm-.05,.6l.02,.19,.1,.02,.12-.12,.02-.1-.1-.05-.12,.02-.05,.02Zm.22,.77l-.14,.1v.05h.07l.1-.1-.02-.05Zm0,.48l.07,.02,.26-.07v-.22l-.12-.12h-.05l-.17,.34v.05Zm.12-3.62h.1l.12-.07-.02-.1-.14-.12-.07,.02v.24l.02,.02Zm0,2.88h.1v-.12h-.1v.12Zm.1-4.97l.34,.07v-.1l-.1-.14-.19-.05-.05,.17v.05Zm.12,4.08l.05-.07-.02-.1-.1-.05-.05,.1,.05,.12h.07Zm-.07-3.14l.07,.14,.1,.02,.1-.05,.02-.1-.05-.05-.17,.02h-.07Zm.22-.17l.1-.02,.07-.24h-.1l-.07,.22v.05Zm.29-3.05l.17,.12,.02-.1-.14-.12-.05,.1Zm0,1.8h.1l.05-.12-.1-.05-.05,.12v.05Zm.6,.55l-.02-.12-.14-.17v.22l.12,.07h.05Zm.05-1.8v.1l.22,.07-.02-.19-.14-.02v.02l-.05,.02Zm.26,11.52l.19-.02,.02-.07-.22-.07v.17Zm.29,2.62l.26-.29v-.05l-.26-.05-.1,.34,.1,.05Zm-.07-1.9l.07,.02,.36-.12,.07,.02-.02-.1-.17-.1-.02-.07h-.17l-.12,.29v.05Zm.17,1.13l-.02-.17-.07-.05-.05,.17,.07,.05h.07Zm-.1-1.85l.02,.22,.24,.12,.05-.07,.1-.02,.02-.07-.05-.1-.19-.1h-.17l-.02,.02Zm1.34-1.68h-.48l-.05,.07-.17-.02,.02,.12,.14-.07,.1,.07,.12-.07,.1,.14v.14h-.19l-.07,.05v.43l-.26-.17-.24-.22-.22,.22,.07,.17,.12,.12,.02,.1-.17,.1-.1,.12,.26,.1,.38,.02,.1,.17,.19,.05v-.14l.12-.07,.14,.05v-.1l-.12-.12v-.05l-.24-.12-.02-.1,.24-.1,.02-.12-.12-.1,.1-.19,.24-.22,.05,.29,.24,.1v-.38l.14-.1,.24-.07-.05-.22-.26-.22-.07-.17,.02-.17,.07-.05,.38,.07,.07-.02,.14-.36,.19,.05,.02-.1-.14-.1-.43-.02-.07-.05,.05-.19,.17-.31-.31-.19-.19,.02-.12,.12-.02,.12,.17,.19v.26l-.1,.12-.07,.34-.24,.17h-.1l-.19-.17h-.07l-.14,.34-.02,.31,.31-.05,.12-.12v-.05l-.07-.05,.02-.05,.19,.02,.12,.12,.02,.24-.07,.02-.05,.02Zm-.98,.26l.17-.05v-.05h-.1l-.05,.07-.02,.02Zm.17,1.9l.02,.12h.26l-.02-.12-.07-.05-.14,.02-.05,.02Zm.22-3.24l.05,.19,.07,.02,.24-.14,.14,.02v-.1l-.12-.12-.1,.12h-.29Zm.34-.82v.1l-.12,.12,.12,.1h.17l-.05-.38,.05-.1-.43-.22-.05,.1,.29,.26,.02,.02Zm2.06-2.66l-.1,.14-.22-.02-.22-.1-.12,.02-.02,.05h-.1l-.17,.34-.1-.12h-.12l.02,.19,.07,.07,.02,.17-.1,.02-.12,.12h-.26v.07l.19,.17,.1,.02,.17,.31,.02,.17h-.26l-.12-.34h-.34l.02,.1,.12,.12,.02,.17,.19,.19-.07,.12-.17-.1-.12-.22-.1-.05-.07,.02-.1,.38,.1,.07,.07,.26,.1,.07v.05l.67-.12,.14,.36,.22,.29,.29,.07,.05,.05v.26l.1,.05,.34-.05-.02,.1,.05,.07,.14,.07,.24,.29,.1-.02v-.12l-.05-.07-.22-.1-.02-.12,.12-.1,.05-.14-.07-.02-.07,.14-.07-.02,.05-.38-.02-.1-.14-.12-.05-.38,.02-.07,.24-.1,.12,.02,.12-.19,.12-.1v-.26l-.24-.26,.07-.05,.1-.34,.17,.05,.1-.05v-.12l-.24-.26-.02-.22-.26-.22v-.17h.22l.1-.12-.07-.05-.29,.07-.19-.07-.07-.17-.14-.05,.12,.26v.07Zm-1.97,6.62h.12v-.12h-.12v.12Zm.22-6.14l.12,.05,.05-.1-.1-.05-.05,.07-.02,.02Zm.24,5.66l.05-.1-.17-.24-.05,.17,.12,.14,.05,.02Zm.48-6.05l.1,.05,.12-.12,.02-.1-.14-.1-.1,.24v.02Zm0,1.03l.17,.07,.1,.22h-.12l-.12-.14-.02-.1v-.05Zm.05,2.95l.12,.36,.1,.14,.12,.07v-.22l.07-.14,.02-.29-.14-.1-.26,.12-.02,.05Zm.17-2.52h.17l.07,.12-.05,.17-.1,.05-.12-.07v-.19l.02-.07Zm.17-.82l.17,.07-.07,.1h-.1v-.17Zm.05,.5l.14,.12-.02,.1-.17-.07,.02-.12,.02-.02Zm.05-1.97l.12-.02,.05-.17-.05-.07h-.05l-.1,.22,.02,.05Zm.38,3.43l-.05,.02-.1-.17-.19-.1-.05-.14,.19-.05,.14,.14,.07,.26-.02,.02Zm-.26,1.08h.1l.07-.22-.14,.07-.02,.1v.05Zm.26-4.34l.12,.05-.02-.14-.1-.02v.12Zm.55-.77h-.12l-.17,.19-.14,.02-.02,.22,.07,.12,.07-.07,.19,.02,.29-.22-.17-.17v-.12Zm-.43,2.18h.1v.1h-.1v-.1Zm.1-.6l.19,.05,.12,.12,.02,.1-.17,.05-.12-.12-.05-.14v-.05Zm.05,1.03l.1,.05-.02,.17,.17,.12-.17,.31h-.1l.05-.29-.05-.05v-.26l.02-.05Zm.12-3.36l.05,.1v.26l.22,.17v.22l.22-.02,.26-.24,.31-.05,.29-.17h.12l.05-.05-.05-.19-.07-.07-.14-.02-.07,.19-.07,.02-.34-.14h-.12l-.05,.07-.05,.29h-.12l-.1-.1,.02-.1,.12-.12v-.17h-.1l-.22,.12h-.17Zm0,1.39v.12l.12,.12,.17-.07,.1-.1-.26-.12-.07,.02-.05,.02Zm0,.46l.22,.05v-.17h-.1l-.1,.07-.02,.05Zm.34-2.66v.1l.05,.05,.17-.05v-.1l-.07-.07h-.1l-.02,.05-.02,.02Zm.43,2.88v-.12l-.07-.05-.07,.07,.07,.1h.07Zm0,.26v-.12l-.07-.05-.07,.07,.07,.1h.07Zm.48-1.08v-.07h-.38l-.22,.07,.02,.1,.14,.17,.34-.17,.19,.05,.07-.1-.12-.05h-.05Zm-.55-2.5v.22l.07,.14,.1-.02,.05-.07,.17,.05-.05-.26,.17-.22v-.07h-.05v-.1h-.12l-.05,.07,.05,.26-.07-.05-.22,.05h-.05Zm.17,2.21l.05-.22-.22-.05,.02,.22,.1,.05h.05Zm-.05-3.41l.07,.19,.1,.02v-.22l-.12-.22-.1,.07,.02,.1,.02,.05Zm.38,1.56l-.1,.14-.1,.02-.19-.05,.02,.22,.05,.05,.22-.14h.07l.02,.14,.19-.05,.12-.14v-.12l-.26-.1-.05,.02Zm.05,1.75h.1v-.17h-.1v.17Zm.94-4.08l.05-.22-.12,.02-.05,.07,.07,.12h.05Zm0,1.42h.07l.1-.17-.07-.17h-.05l-.1,.17,.02,.12,.02,.05Zm.22-.98l-.02-.19-.05-.07h-.1l-.07,.14,.05,.1,.12,.05,.07-.02Zm.43-.91v.1l.07,.05h.19l-.05-.1-.19-.07-.02,.02Z"/>
  <path class="cls-1" d="M186.19,2.66l.07-.05,.36,.07,.82-.02h.82l.5,.14,.31,.36,.02,.22-.12,.36-.12,.12-.07,.29-.14,.14-.17,.53-.14,.55h-.07v.12h-.05v.1l-.19,.31-.02,.19-.1,.12-.26,.72-.26,.65-.05,.31-.36,.62-.17,.62-.07,.07-.12,.36-.19,.26v.12l-.07,.05-.24,.72-.29,.72-.19,.62-.12,.1v.12h-.05v.1h-.07v.12h-.05v.12h-.05v.1h-.05l-.19,.7-.1,.12-.26,.7v.07h-.05v.1h-.07v.12h-.05v.1h-.05v.12h-.05v.1h-.07l-.24,.72-.19,.77-.12,.7-.05,.19,.05,.38,.29,.26,.29,.1,.14-.1,.17-.02,.31-.19,.12-.14,.17-.05,.05-.1,.29-.17,.55-.58,.5-.55,.53-.62,.07-.07,.02-.14,.12-.12,.41-.7,.14-.24,.02-.14,.07-.02,.22-.31,.02-.12,.22-.29,.14-.1,.24-.02,.38,.14,.07,.07,.17,.05,.24,.36,.07,.34-.02,.19-.19,.43-.1,.05-.38,.65-.17,.34-.26,.31v.12l-.07,.02-.24,.31-.19,.14v.12l-.1,.05v.12l-.17,.1-.24,.34-.29,.29-.26,.38-.14,.07-.05,.17h-.1l-.29,.29-.38,.26-.26,.26h-.07l-.36,.34-.24,.07-.41,.26-.19,.05-.14,.1h-.1l-.12,.12-.34,.02-.67,.12-.86,.02-.72-.19-.46-.22-.14-.17-.29-.19v-.12h-.05l-.02-.1-.14-.12-.1-.36-.07-.02-.07-.31-.02-.38-.05-.05v-.19l-.05-.05,.05-.74,.1-.79,.17-.7,.24-.7,.02-.1,.07-.05,.19-.72,.34-.7,.12-.34,.24-.36,.05-.38,.24-.5,.26-.7,.24-.55v-.05h.05l.14-.55,.38-.65,.22-.74,.26-.7,.24-.58,.22-.58,.05-.19h.07v-.1l.34-.6,.07-.38,.26-.7,.29-.58v-.19l.34-.7,.22-.17,.02-.1,.41-.24h.05Zm-4.51,12.94h.12l.05-.07-.1-.1-.07,.12v.05Zm.46,2.06l.02,.1,.07,.02,.19-.05,.02-.07-.07-.05-.19,.02-.05,.02Zm.36,.72l.02-.14-.17-.02-.12-.17h-.05l.02,.22,.14,.12,.12,.02,.02-.02Zm.29-1.58l.05-.05-.05-.07-.1,.02-.02,.05,.07,.02,.05,.02Zm.1-3.43h.12l.1-.07-.1-.1-.1,.12-.02,.05Zm1.46-3.26l.02,.1,.19,.02v-.17l-.19,.02-.02,.02Zm.07,.5h.14v-.1l-.14-.07v.17Zm.1-1.58h.12v-.1h-.12v.1Zm.17,2.11h.14l.02-.1h-.12l-.05,.1Zm.55-3.58l-.17,.17v.24l-.12,.02-.12-.05-.1,.05,.1,.19,.12,.07,.22-.17,.12,.07-.05,.07,.31,.22h.07l.1-.12-.19-.07-.14-.12-.07-.14v-.12l.14-.1-.07-.17-.1-.05h-.05Zm-.38,.1l.12-.02,.07-.07-.02-.12-.17,.07v.14Zm.53,1.49l-.14-.02-.17,.17-.17,.07v.1l.17,.12,.14-.14,.17-.02,.12,.05,.07-.07-.02-.24h.12l.05-.05v-.17l-.14,.02-.14,.17-.05,.02Zm-.14-3.55v-.14l-.12-.07v.12l.07,.1h.05Zm.14,1.63l.05-.48-.1-.1-.17-.02,.02,.22,.17,.36,.02,.02Zm-.14,1.54h.14v-.17h-.14v.17Zm.48-1.97l.05-.17-.07-.19-.19-.12,.05,.31,.17,.17Zm-.05,3.48l-.14,.07-.02,.1h.12l.12-.12,.02-.26-.1,.02v.19Zm.17-5.54l-.17,.12v.1l.22,.29,.17-.1,.1,.02-.1,.29,.05,.19-.05,.12,.1,.02,.26,.19,.12-.12,.22-.1,.22,.17h.12l.1-.34,.29,.05,.05-.05-.05-.26-.14-.12-.1-.19-.12-.12-.02-.26h-.5l.07,.48-.19,.05-.19-.1-.43-.41,.22-.19,.17-.07,.1,.02,.1-.07-.07-.12-.1-.05-.36,.02-.05,.1h-.12l-.1,.17,.19,.22,.02,.05Zm-.17,2.62l.02,.19,.12,.14,.02,.1-.17,.31v.07l.26-.05,.12,.12,.22,.02v.1l.1,.02,.02-.12-.17-.07-.07-.14v-.26h.17v-.1l-.1-.19-.14-.12-.36-.05-.05,.02Zm.1-1.03v.1l.17,.12,.17-.02,.05-.19-.07-.05-.29,.02-.02,.02Zm.43,.53h.1l.12-.12v-.14l-.22-.05-.05,.1,.02,.19,.02,.02Zm.22-1.18v.05l-.07,.05-.14-.05,.05-.07h.12l.05,.02Zm.12,1.63l.17-.17v-.12l-.12-.14-.1-.02-.07,.29,.07,.14,.05,.02Zm0-2.83l.12-.02,.1-.14-.19,.02-.02,.1v.05Zm.26,2.02l.02-.12-.05-.05h-.19l.07,.14,.1,.02h.05Zm-.1,1.78h.1l.07-.12-.07-.14h-.05l-.07,.22,.02,.05Zm.22-4.34l.17,.05,.05-.14-.22,.05v.05Zm.38,.17l.22,.17,.05-.05-.02-.17-.17-.07-.05,.07-.02,.05Zm.31,1.2h.12l.12-.1,.05-.19-.22-.1-.07,.17v.22Z"/>
</svg>