<svg width="118" height="25" viewBox="0 0 118 25" fill="none" xmlns="http://www.w3.org/2000/svg">
<path d="M105.294 17.4709C108.065 17.4709 110.313 15.2224 110.313 12.4488C110.313 9.67512 108.065 7.42664 105.294 7.42664C102.522 7.42664 100.274 9.67512 100.274 12.4488C100.274 15.2224 102.522 17.4709 105.294 17.4709Z" stroke="white" stroke-width="1.5" stroke-linecap="round" stroke-linejoin="round"/>
<path d="M94.001 17.471V7.42671C94.001 3.95966 96.8099 1.14905 100.275 1.14905H110.313C113.778 1.14905 116.587 3.95966 116.587 7.42671V17.471C116.587 20.938 113.778 23.7486 110.313 23.7486H100.275C96.8099 23.7486 94.001 20.938 94.001 17.471Z" stroke="white" stroke-width="1.5"/>
<path d="M112.195 5.55588L112.209 5.54205" stroke="white" stroke-width="1.5" stroke-linecap="round" stroke-linejoin="round"/>
<path d="M23.5859 7.27766V17.3219C23.5859 20.7889 20.777 23.5996 17.3121 23.5996H7.27387C3.80891 23.5996 1 20.7889 1 17.3219V7.27766C1 3.81061 3.80891 1 7.27387 1H17.3121C20.777 1 23.5859 3.81061 23.5859 7.27766Z" stroke="white" stroke-width="1.5" stroke-linecap="round" stroke-linejoin="round"/>
<path d="M11.0381 23.5995C11.0381 19.8329 11.0381 16.0663 11.0381 12.2997C11.0381 9.55324 11.6655 7.27759 16.0572 7.27759" stroke="white" stroke-width="1.5" stroke-linecap="round" stroke-linejoin="round"/>
<path d="M8.52832 13.5553H11.0379H16.057" stroke="white" stroke-width="1.5" stroke-linecap="round" stroke-linejoin="round"/>
<path d="M71.415 1.1606C71.415 1.1606 69.0996 2.52927 67.8121 2.9172C67.121 2.12215 66.2026 1.55863 65.1811 1.30287C64.1595 1.04712 63.0842 1.11145 62.1004 1.48718C61.1166 1.86291 60.2717 2.5319 59.6804 3.40367C59.0889 4.27545 58.7793 5.30794 58.7934 6.36152V7.50963C56.777 7.56194 54.7789 7.11446 52.9772 6.20703C51.1754 5.2996 49.626 3.96041 48.4667 2.3087C48.4667 2.3087 43.877 12.6417 54.2038 17.2341C51.8407 18.8391 49.0257 19.6439 46.1719 19.5304C56.4986 25.2709 69.1201 19.5304 69.1201 6.32708C69.1191 6.00727 69.0884 5.68826 69.0283 5.37415C70.1994 4.21857 71.415 1.1606 71.415 1.1606Z" stroke="white" stroke-width="1.5" stroke-linecap="round" stroke-linejoin="round"/>
</svg>
